<svg width="173" height="173" viewBox="0 0 173 173" fill="none" xmlns="http://www.w3.org/2000/svg">
<path fill-rule="evenodd" clip-rule="evenodd" d="M111.716 43.3232C111.716 54.875 108.726 65.2394 103.998 72.6535C102.33 75.27 100.468 77.4898 98.4655 79.2682L94.0751 78.5451L86.2969 31.3232L78.5187 78.5451L74.1281 79.2683C72.1256 77.4899 70.2636 75.27 68.5952 72.6535C63.8676 65.2394 60.8781 54.875 60.8781 43.3232C60.8781 31.7715 63.8676 21.4071 68.5952 13.9929C73.3376 6.55554 79.6444 2.32324 86.2968 2.32324C92.9493 2.32324 99.256 6.55554 103.998 13.9929C108.726 21.4071 111.716 31.7715 111.716 43.3232ZM71.6465 79.677C63.9727 72.0552 58.8781 58.6223 58.8781 43.3232C58.8781 19.575 71.1539 0.323242 86.2968 0.323242C101.44 0.323242 113.716 19.575 113.716 43.3232C113.716 58.6223 108.621 72.0552 100.947 79.677L98.4655 79.2682C94.7758 82.545 90.6089 84.3232 86.2968 84.3232C81.9847 84.3232 77.8179 82.545 74.1281 79.2683L71.6465 79.677ZM86.2968 86.3232C80.9092 86.3232 75.8845 83.8863 71.6465 79.677L31.2969 86.3232L71.6465 92.9695C63.9727 100.591 58.8781 114.024 58.8781 129.323C58.8781 153.071 71.1539 172.323 86.2968 172.323C101.44 172.323 113.716 153.071 113.716 129.323C113.716 114.024 108.621 100.591 100.947 92.9695L141.297 86.3232L100.947 79.677C96.7091 83.8863 91.6844 86.3232 86.2968 86.3232ZM98.4655 93.3782L100.947 92.9695C96.7091 88.7602 91.6844 86.3232 86.2968 86.3232C80.9092 86.3232 75.8845 88.7601 71.6465 92.9695L74.1281 93.3782C72.1256 95.1566 70.2636 97.3764 68.5952 99.9929C63.8676 107.407 60.8781 117.771 60.8781 129.323C60.8781 140.875 63.8676 151.239 68.5952 158.654C73.3376 166.091 79.6444 170.323 86.2968 170.323C92.9493 170.323 99.256 166.091 103.998 158.654C108.726 151.239 111.716 140.875 111.716 129.323C111.716 117.771 108.726 107.407 103.998 99.9929C102.33 97.3765 100.468 95.1566 98.4655 93.3782ZM98.4655 93.3782C94.7758 90.1015 90.6089 88.3232 86.2968 88.3232C81.9847 88.3232 77.8179 90.1015 74.1281 93.3782L78.5187 94.1014L86.2969 141.323L94.0751 94.1014L98.4655 93.3782ZM13.9666 104.025C21.3807 108.752 31.7451 111.742 43.2969 111.742C54.8486 111.742 65.213 108.752 72.6272 104.025C80.0646 99.2825 84.2969 92.9757 84.2969 86.3232C84.2969 79.6708 80.0646 73.364 72.6272 68.6216C65.213 63.894 54.8486 60.9045 43.2969 60.9045C31.7451 60.9045 21.3807 63.894 13.9666 68.6216C6.52917 73.364 2.29688 79.6708 2.29688 86.3232C2.29687 92.9757 6.52917 99.2825 13.9666 104.025ZM0.296875 86.3232C0.296874 101.466 19.5486 113.742 43.2969 113.742C67.0451 113.742 86.2968 101.466 86.2968 86.3232C86.2968 71.1803 67.0451 58.9045 43.2969 58.9045C19.5486 58.9045 0.296876 71.1803 0.296875 86.3232ZM99.9666 104.025C107.381 108.752 117.745 111.742 129.297 111.742C140.849 111.742 151.213 108.752 158.627 104.025C166.065 99.2825 170.297 92.9757 170.297 86.3232C170.297 79.6708 166.065 73.364 158.627 68.6216C151.213 63.894 140.849 60.9045 129.297 60.9045C117.745 60.9045 107.381 63.894 99.9666 68.6216C92.5292 73.364 88.2969 79.6708 88.2969 86.3232C88.2969 92.9757 92.5292 99.2825 99.9666 104.025ZM86.2968 86.3232C86.2968 101.466 105.549 113.742 129.297 113.742C153.045 113.742 172.297 101.466 172.297 86.3232C172.297 71.1803 153.045 58.9045 129.297 58.9045C105.549 58.9045 86.2968 71.1803 86.2968 86.3232Z" fill="white"/>
</svg>
