<svg width="171" height="169" viewBox="0 0 171 169" fill="none" xmlns="http://www.w3.org/2000/svg">
<path fill-rule="evenodd" clip-rule="evenodd" d="M79.5795 5.35834C80.683 -1.34146 90.3163 -1.34144 91.4199 5.35835L94.148 21.9208L110.71 24.6489C117.41 25.7525 117.41 35.3858 110.71 36.4894L94.148 39.2175L91.4199 55.7799C90.3163 62.4797 80.683 62.4797 79.5795 55.7799L76.8514 39.2175L60.2889 36.4894C53.5891 35.3858 53.5891 25.7525 60.2889 24.6489L76.8514 21.9208L79.5795 5.35834ZM89.4465 5.6834C88.7108 1.21686 82.2886 1.21687 81.5529 5.68339L78.5917 23.6611L60.6139 26.6223C56.1474 27.358 56.1474 33.7802 60.6139 34.5159L78.5917 37.4772L81.5529 55.4549C82.2886 59.9214 88.7108 59.9214 89.4465 55.4549L92.4077 37.4772L110.385 34.5159C114.852 33.7802 114.852 27.358 110.385 26.6223L92.4077 23.6611L89.4465 5.6834Z" fill="white"/>
<path fill-rule="evenodd" clip-rule="evenodd" d="M79.5795 113.358C80.683 106.658 90.3163 106.658 91.4199 113.358L94.148 129.921L110.71 132.649C117.41 133.752 117.41 143.386 110.71 144.489L94.148 147.217L91.4199 163.78C90.3163 170.48 80.683 170.48 79.5795 163.78L76.8514 147.217L60.2889 144.489C53.5891 143.386 53.5891 133.752 60.2889 132.649L76.8514 129.921L79.5795 113.358ZM89.4465 113.683C88.7108 109.217 82.2886 109.217 81.5529 113.683L78.5917 131.661L60.6139 134.622C56.1474 135.358 56.1474 141.78 60.6139 142.516L78.5917 145.477L81.5529 163.455C82.2886 167.921 88.7108 167.921 89.4465 163.455L92.4077 145.477L110.385 142.516C114.852 141.78 114.852 135.358 110.385 134.622L92.4077 131.661L89.4465 113.683Z" fill="white"/>
<path fill-rule="evenodd" clip-rule="evenodd" d="M134.745 59.3583C135.849 52.6585 145.482 52.6586 146.586 59.3583L149.314 75.9208L165.876 78.6489C172.576 79.7525 172.576 89.3858 165.876 90.4894L149.314 93.2175L146.586 109.78C145.482 116.48 135.849 116.48 134.745 109.78L132.017 93.2175L115.455 90.4894C108.755 89.3858 108.755 79.7525 115.455 78.6489L132.017 75.9208L134.745 59.3583ZM144.613 59.6834C143.877 55.2169 137.455 55.2169 136.719 59.6834L133.758 77.6611L115.78 80.6223C111.313 81.358 111.313 87.7802 115.78 88.5159L133.758 91.4772L136.719 109.455C137.455 113.921 143.877 113.921 144.613 109.455L147.574 91.4772L165.551 88.5159C170.018 87.7802 170.018 81.358 165.551 80.6223L147.574 77.6611L144.613 59.6834Z" fill="white"/>
<path fill-rule="evenodd" clip-rule="evenodd" d="M134.745 113.358C135.849 106.658 145.482 106.658 146.586 113.358L149.314 129.921L165.876 132.649C172.576 133.752 172.576 143.386 165.876 144.489L149.314 147.217L146.586 163.78C145.482 170.48 135.849 170.48 134.745 163.78L132.017 147.217L115.455 144.489C108.755 143.386 108.755 133.752 115.455 132.649L132.017 129.921L134.745 113.358ZM144.613 113.683C143.877 109.217 137.455 109.217 136.719 113.683L133.758 131.661L115.78 134.622C111.313 135.358 111.313 141.78 115.78 142.516L133.758 145.477L136.719 163.455C137.455 167.921 143.877 167.921 144.613 163.455L147.574 145.477L165.551 142.516C170.018 141.78 170.018 135.358 165.551 134.622L147.574 131.661L144.613 113.683Z" fill="white"/>
<path fill-rule="evenodd" clip-rule="evenodd" d="M134.745 5.35834C135.849 -1.34146 145.482 -1.34144 146.586 5.35835L149.314 21.9208L165.876 24.6489C172.576 25.7525 172.576 35.3858 165.876 36.4894L149.314 39.2175L146.586 55.7799C145.482 62.4797 135.849 62.4797 134.745 55.7799L132.017 39.2175L115.455 36.4894C108.755 35.3858 108.755 25.7525 115.455 24.6489L132.017 21.9208L134.745 5.35834ZM144.613 5.6834C143.877 1.21686 137.455 1.21687 136.719 5.68339L133.758 23.6611L115.78 26.6223C111.313 27.358 111.313 33.7802 115.78 34.5159L133.758 37.4772L136.719 55.4549C137.455 59.9214 143.877 59.9214 144.613 55.4549L147.574 37.4772L165.551 34.5159C170.018 33.7802 170.018 27.358 165.551 26.6223L147.574 23.6611L144.613 5.6834Z" fill="white"/>
<path fill-rule="evenodd" clip-rule="evenodd" d="M24.6474 5.35834C25.751 -1.34146 35.3843 -1.34144 36.4879 5.35835L39.216 21.9208L55.7785 24.6489C62.4783 25.7525 62.4782 35.3858 55.7785 36.4894L39.216 39.2175L36.4879 55.7799C35.3843 62.4797 25.751 62.4797 24.6474 55.7799L21.9193 39.2175L5.35687 36.4894C-1.34293 35.3858 -1.34291 25.7525 5.35688 24.6489L21.9193 21.9208L24.6474 5.35834ZM34.5145 5.6834C33.7788 1.21686 27.3566 1.21687 26.6209 5.68339L23.6596 23.6611L5.68193 26.6223C1.2154 27.358 1.2154 33.7802 5.68193 34.5159L23.6596 37.4772L26.6209 55.4549C27.3566 59.9214 33.7788 59.9214 34.5145 55.4549L37.4757 37.4772L55.4534 34.5159C59.9199 33.7802 59.9199 27.358 55.4534 26.6223L37.4757 23.6611L34.5145 5.6834Z" fill="white"/>
<path fill-rule="evenodd" clip-rule="evenodd" d="M24.6474 113.358C25.751 106.658 35.3843 106.658 36.4879 113.358L39.216 129.921L55.7785 132.649C62.4783 133.752 62.4782 143.386 55.7785 144.489L39.216 147.217L36.4879 163.78C35.3843 170.48 25.751 170.48 24.6474 163.78L21.9193 147.217L5.35687 144.489C-1.34293 143.386 -1.34291 133.752 5.35688 132.649L21.9193 129.921L24.6474 113.358ZM34.5145 113.683C33.7788 109.217 27.3566 109.217 26.6209 113.683L23.6596 131.661L5.68193 134.622C1.2154 135.358 1.2154 141.78 5.68193 142.516L23.6596 145.477L26.6209 163.455C27.3566 167.921 33.7788 167.921 34.5145 163.455L37.4757 145.477L55.4534 142.516C59.9199 141.78 59.9199 135.358 55.4534 134.622L37.4757 131.661L34.5145 113.683Z" fill="white"/>
<path fill-rule="evenodd" clip-rule="evenodd" d="M24.6474 59.3583C25.751 52.6585 35.3843 52.6586 36.4879 59.3583L39.216 75.9208L55.7785 78.6489C62.4783 79.7525 62.4782 89.3858 55.7785 90.4894L39.216 93.2175L36.4879 109.78C35.3843 116.48 25.751 116.48 24.6474 109.78L21.9193 93.2175L5.35687 90.4894C-1.34293 89.3858 -1.34291 79.7525 5.35688 78.6489L21.9193 75.9208L24.6474 59.3583ZM34.5145 59.6834C33.7788 55.2169 27.3566 55.2169 26.6209 59.6834L23.6596 77.6611L5.68193 80.6223C1.2154 81.358 1.2154 87.7802 5.68193 88.5159L23.6596 91.4772L26.6209 109.455C27.3566 113.921 33.7788 113.921 34.5145 109.455L37.4757 91.4772L55.4534 88.5159C59.9199 87.7802 59.9199 81.358 55.4534 80.6223L37.4757 77.6611L34.5145 59.6834Z" fill="white"/>
<path fill-rule="evenodd" clip-rule="evenodd" d="M85.4997 36.8845L83.3705 49.8111C80.5139 67.1534 66.9215 80.7458 49.5792 83.6024L36.6526 85.7316L49.5792 87.8608C66.9215 90.7174 80.5139 104.31 83.3705 121.652L85.4997 134.579L87.6289 121.652C90.4854 104.31 104.078 90.7174 121.42 87.8608L134.347 85.7316L121.42 83.6024C104.078 80.7458 90.4854 67.1534 87.6289 49.8111L85.4997 36.8845ZM81.3971 49.486L84.513 30.5691H86.4864L89.6023 49.486C92.3195 65.9824 105.249 78.9118 121.745 81.629L140.662 84.7449V86.7183L121.745 89.8342C105.249 92.5514 92.3195 105.481 89.6023 121.977L86.4864 140.894H84.513L81.3971 121.977C78.6799 105.481 65.7505 92.5514 49.2541 89.8342L30.3372 86.7183V84.7449L49.2541 81.629C65.7505 78.9118 78.6799 65.9824 81.3971 49.486Z" fill="white"/>
</svg>
