<svg width="242" height="149" viewBox="0 0 242 149" fill="none" xmlns="http://www.w3.org/2000/svg">
<path fill-rule="evenodd" clip-rule="evenodd" d="M41.2742 74.6059L74.21 76.2182L75.8223 109.154L77.4362 76.1875L178.142 74.6059L77.4362 73.0242L75.8223 40.0578L74.21 72.9936L41.2742 74.6059ZM72.3011 78.1272L20.7734 75.6047V73.6071L72.3011 71.0846L74.8235 19.557H76.8211L79.3421 71.0539L241.838 73.606V75.6058L79.3421 78.1578L76.8211 129.655H74.8235L72.3011 78.1272Z" fill="white"/>
<path fill-rule="evenodd" clip-rule="evenodd" d="M75.2787 27.5691L75.0097 34.8267C74.2144 56.2863 56.9954 73.4965 35.5354 74.2808L27.657 74.5688L35.5354 74.8567C56.9954 75.6411 74.2144 92.8513 75.0097 114.311L75.2787 121.568L75.5477 114.311C76.343 92.8513 93.562 75.6411 115.022 74.8567L122.9 74.5688L115.022 74.2808C93.562 73.4965 76.343 56.2863 75.5477 34.8267L75.2787 27.5691ZM74.2794 0.531738L76.278 0.531738L77.5463 34.7526C78.3029 55.1654 94.6819 71.536 115.095 72.2821L150.315 73.5694V75.5681L115.095 76.8554C94.6819 77.6015 78.3029 93.9721 77.5463 114.385L76.278 148.606H74.2794L73.0111 114.385C72.2546 93.9721 55.8755 77.6015 35.4624 76.8554L0.242188 75.5681L0.242188 73.5694L35.4623 72.2821C55.8755 71.536 72.2546 55.1654 73.0111 34.7526L74.2794 0.531738Z" fill="white"/>
<path fill-rule="evenodd" clip-rule="evenodd" d="M75.2787 91.8882C84.844 91.8882 92.5981 84.134 92.5981 74.5687C92.5981 65.0035 84.844 57.2493 75.2787 57.2493C65.7134 57.2493 57.9592 65.0035 57.9592 74.5687C57.9592 84.134 65.7134 91.8882 75.2787 91.8882ZM75.2787 93.8882C85.9485 93.8882 94.5981 85.2386 94.5981 74.5687C94.5981 63.8989 85.9485 55.2493 75.2787 55.2493C64.6088 55.2493 55.9592 63.8989 55.9592 74.5687C55.9592 85.2386 64.6088 93.8882 75.2787 93.8882Z" fill="white"/>
<path fill-rule="evenodd" clip-rule="evenodd" d="M111.986 91.8882C121.552 91.8882 129.306 84.134 129.306 74.5687C129.306 65.0035 121.552 57.2493 111.986 57.2493C102.421 57.2493 94.6669 65.0035 94.6669 74.5687C94.6669 84.134 102.421 91.8882 111.986 91.8882ZM111.986 93.8882C122.656 93.8882 131.306 85.2386 131.306 74.5687C131.306 63.8989 122.656 55.2493 111.986 55.2493C101.316 55.2493 92.6669 63.8989 92.6669 74.5687C92.6669 85.2386 101.316 93.8882 111.986 93.8882Z" fill="white"/>
<path fill-rule="evenodd" clip-rule="evenodd" d="M148.694 91.8882C158.259 91.8882 166.013 84.134 166.013 74.5687C166.013 65.0035 158.259 57.2493 148.694 57.2493C139.129 57.2493 131.375 65.0035 131.375 74.5687C131.375 84.134 139.129 91.8882 148.694 91.8882ZM148.694 93.8882C159.364 93.8882 168.013 85.2386 168.013 74.5687C168.013 63.8989 159.364 55.2493 148.694 55.2493C138.024 55.2493 129.375 63.8989 129.375 74.5687C129.375 85.2386 138.024 93.8882 148.694 93.8882Z" fill="white"/>
<path fill-rule="evenodd" clip-rule="evenodd" d="M185.402 91.8882C194.967 91.8882 202.721 84.134 202.721 74.5687C202.721 65.0035 194.967 57.2493 185.402 57.2493C175.836 57.2493 168.082 65.0035 168.082 74.5687C168.082 84.134 175.836 91.8882 185.402 91.8882ZM185.402 93.8882C196.071 93.8882 204.721 85.2386 204.721 74.5687C204.721 63.8989 196.071 55.2493 185.402 55.2493C174.732 55.2493 166.082 63.8989 166.082 74.5687C166.082 85.2386 174.732 93.8882 185.402 93.8882Z" fill="white"/>
<path fill-rule="evenodd" clip-rule="evenodd" d="M222.109 91.8882C231.675 91.8882 239.429 84.134 239.429 74.5687C239.429 65.0035 231.675 57.2493 222.109 57.2493C212.544 57.2493 204.79 65.0035 204.79 74.5687C204.79 84.134 212.544 91.8882 222.109 91.8882ZM222.109 93.8882C232.779 93.8882 241.429 85.2386 241.429 74.5687C241.429 63.8989 232.779 55.2493 222.109 55.2493C211.439 55.2493 202.79 63.8989 202.79 74.5687C202.79 85.2386 211.439 93.8882 222.109 93.8882Z" fill="white"/>
</svg>
