<svg width="111" height="111" viewBox="0 0 111 111" fill="none" xmlns="http://www.w3.org/2000/svg">
<path fill-rule="evenodd" clip-rule="evenodd" d="M55.6646 0.825256L55.582 0.323242L55.4993 0.825256C50.8459 1.05286 46.9906 20.4742 46.2216 45.9628C20.733 46.7319 1.31165 50.5872 1.08405 55.2405L0.582031 55.3232L1.08405 55.4059C1.31165 60.0593 20.733 63.9146 46.2216 64.6837C46.9906 90.1722 50.8459 109.594 55.4993 109.821L55.582 110.323L55.6646 109.821C60.3179 109.594 64.1734 90.1722 64.9424 64.6837C90.4311 63.9146 109.852 60.0593 110.08 55.4059L110.582 55.3232L110.08 55.2405C109.852 50.5872 90.4311 46.7319 64.9424 45.9628C64.1734 20.4742 60.3179 1.05286 55.6646 0.825256ZM55.0817 3.35999C54.6815 3.87152 54.22 4.68707 53.7332 5.86816C52.6781 8.42847 51.6846 12.2541 50.8347 17.1294C49.5497 24.5011 48.6302 34.0517 48.2612 44.7684L55.0817 3.35999ZM62.9028 44.7684L56.0822 3.35999C56.4825 3.87152 56.9439 4.68707 57.4307 5.86816C58.4858 8.42847 59.4793 12.2541 60.3292 17.1294C61.6142 24.5011 62.5336 34.0516 62.9028 44.7684ZM45.0268 48.0024C34.3102 48.3715 24.7598 49.291 17.3882 50.576C12.5129 51.4258 8.68726 52.4194 6.12695 53.4745C4.94586 53.9613 4.13031 54.4228 3.61877 54.8231L45.0268 48.0024ZM3.61877 55.8234L45.0268 62.644C34.3102 62.275 24.7598 61.3555 17.3882 60.0705C12.5129 59.2206 8.68726 58.2271 6.12695 57.1719C4.94586 56.6852 4.13031 56.2237 3.61877 55.8234ZM48.2612 65.8781L55.0817 107.286C54.6815 106.775 54.22 105.959 53.7332 104.778C52.6781 102.218 51.6846 98.3924 50.8347 93.5171C49.5497 86.1454 48.6302 76.5948 48.2612 65.8781ZM56.0822 107.286L62.9028 65.8781C62.5336 76.5948 61.6142 86.1454 60.3292 93.5171C59.4793 98.3924 58.4858 102.218 57.4307 104.778C56.9439 105.959 56.4825 106.775 56.0822 107.286ZM66.1373 62.644L107.545 55.8234C107.034 56.2237 106.218 56.6852 105.037 57.1719C102.477 58.2271 98.6512 59.2206 93.7759 60.0705C86.4042 61.3555 76.8538 62.2749 66.1373 62.644ZM107.545 54.8231L66.1373 48.0025C76.8538 48.3716 86.4042 49.291 93.7759 50.576C98.6512 51.4258 102.477 52.4194 105.037 53.4745C106.218 53.9613 107.034 54.4228 107.545 54.8231Z" fill="white"/>
</svg>
