<svg width="111" height="141" viewBox="0 0 111 141" fill="none" xmlns="http://www.w3.org/2000/svg">
<path fill-rule="evenodd" clip-rule="evenodd" d="M55.8188 8.66727L54.2219 21.4412C51.0914 46.4837 31.8665 66.4845 6.97152 70.6055C31.8665 74.7265 51.0914 94.7273 54.2219 119.77L55.8188 132.544L57.4156 119.77C60.5461 94.7272 79.771 74.7265 104.666 70.6055C79.771 66.4845 60.5461 46.4837 57.4156 21.4412L55.8188 8.66727ZM52.2374 21.1931L54.8265 0.481445L56.8111 0.481445L59.4002 21.1931C62.4226 45.3716 80.9938 64.6794 105.036 68.6396L110.981 69.6188L110.981 71.5922L105.036 72.5714C80.9937 76.5316 62.4227 95.8393 59.4002 120.018L56.8111 140.73H54.8265L52.2374 120.018C49.2149 95.8393 30.6438 76.5316 6.60107 72.5714L0.656251 71.5922L0.65625 69.6188L6.60108 68.6396C30.6438 64.6794 49.2149 45.3717 52.2374 21.1931Z" fill="white"/>
</svg>
