<svg width="113" height="113" viewBox="0 0 113 113" fill="none" xmlns="http://www.w3.org/2000/svg">
<path fill-rule="evenodd" clip-rule="evenodd" d="M6.80967 35.4469C14.9124 15.8553 34.2121 2.0708 56.7314 2.0708C79.2508 2.0708 98.5505 15.8553 106.653 35.4469C99.8835 24.9902 88.1155 18.0708 74.7314 18.0708C69.401 18.0708 64.327 19.1683 59.7229 21.1497L56.7314 2.98853L53.74 21.1497C49.1359 19.1683 44.0619 18.0708 38.7314 18.0708C25.3474 18.0708 13.5794 24.9902 6.80967 35.4469ZM2.73145 56.0708C2.73145 48.7667 4.18159 41.8014 6.80967 35.4469C2.96416 41.3868 0.731445 48.4681 0.731445 56.0708C0.731445 25.1429 25.8035 0.0708008 56.7314 0.0708008C87.6594 0.0708008 112.731 25.1429 112.731 56.0708C112.731 48.4681 110.499 41.3868 106.653 35.4469C109.281 41.8014 110.731 48.7667 110.731 56.0708C110.731 36.1885 94.6137 20.0708 74.7314 20.0708C69.5056 20.0708 64.5398 21.1843 60.0584 23.187L59.7229 21.1497C58.7018 21.5891 57.7039 22.072 56.7314 22.596C55.759 22.072 54.7611 21.5891 53.74 21.1497L53.4044 23.187C48.9231 21.1843 43.9573 20.0708 38.7314 20.0708C18.8492 20.0708 2.73145 36.1885 2.73145 56.0708ZM2.77305 57.817C2.74542 57.2384 2.73145 56.6562 2.73145 56.0708C2.73145 56.6558 2.74075 57.2387 2.75922 57.8192L1.73145 57.9885L2.77111 58.1598C3.02001 64.7034 4.43328 70.9488 6.80967 76.6947C2.96416 70.7548 0.731445 63.6735 0.731445 56.0708C0.731445 86.9483 25.7218 111.989 56.5802 112.071L56.7314 112.989L56.8826 112.071C87.7411 111.989 112.731 86.9483 112.731 56.0708C112.731 63.6735 110.499 70.7548 106.653 76.6947C109.03 70.9488 110.443 64.7034 110.692 58.1598L111.731 57.9885L110.704 57.8192C110.722 57.2387 110.731 56.6558 110.731 56.0708C110.731 56.6562 110.717 57.2384 110.69 57.817L76.5358 52.1913C75.3846 40.8382 69.2358 30.962 60.3237 24.7972L60.0584 23.187C59.6293 23.3787 59.2045 23.5787 58.7844 23.7866C58.1138 23.3691 57.4292 22.972 56.7314 22.596C56.0337 22.972 55.3491 23.3691 54.6784 23.7866C54.2584 23.5787 53.8336 23.3787 53.4044 23.187L53.1392 24.7972C44.2271 30.962 38.0783 40.8382 36.9271 52.1913L2.77305 57.817ZM2.79123 58.1631C2.78463 58.0479 2.77857 57.9325 2.77305 57.817L2.75922 57.8192C2.76283 57.9328 2.76679 58.0464 2.77111 58.1598L2.79123 58.1631ZM37.5359 63.8861L2.79123 58.1631C3.87481 77.0716 19.5515 92.0708 38.7314 92.0708C43.7292 92.0708 48.4892 91.0524 52.815 89.2117L53.1492 91.2402C48.7032 93.0648 43.8348 94.0708 38.7314 94.0708C25.3474 94.0708 13.5794 87.1514 6.80967 76.6947C14.8546 96.1466 33.9376 109.874 56.2505 110.069L56.5802 112.071C56.6306 112.071 56.681 112.071 56.7314 112.071C56.7819 112.071 56.8323 112.071 56.8826 112.071L57.2124 110.069C79.5253 109.874 98.6083 96.1466 106.653 76.6947C99.8835 87.1514 88.1155 94.0708 74.7314 94.0708C69.6281 94.0708 64.7597 93.0648 60.3137 91.2402L60.6479 89.2117C64.9737 91.0524 69.7336 92.0708 74.7314 92.0708C93.9114 92.0708 109.588 77.0716 110.672 58.1631L110.692 58.1598C110.696 58.0464 110.7 57.9328 110.704 57.8192L110.69 57.817C110.684 57.9325 110.678 58.0479 110.672 58.1631L75.927 63.8861C76.4542 61.3638 76.7314 58.7497 76.7314 56.0708C76.7314 54.7611 76.6652 53.4669 76.5358 52.1913L74.4871 51.8538C73.3393 42.0169 68.226 33.3909 60.7881 27.6169L60.3237 24.7972C59.8193 24.4483 59.3061 24.1113 58.7844 23.7866C58.087 24.1318 57.4024 24.4988 56.7314 24.887C56.0605 24.4988 55.3759 24.1318 54.6784 23.7866C54.1568 24.1113 53.6436 24.4483 53.1392 24.7972L52.6748 27.6169C45.2369 33.3909 40.1235 42.0169 38.9758 51.8538L36.9271 52.1913C36.7977 53.4669 36.7314 54.7611 36.7314 56.0708C36.7314 58.7497 37.0086 61.3638 37.5359 63.8861ZM39.6615 64.2362L37.5359 63.8861C39.499 73.2761 44.9281 81.393 52.4239 86.8374L52.815 89.2117C53.4456 88.9434 54.0669 88.6576 54.6784 88.355C55.3491 88.7725 56.0337 89.1696 56.7314 89.5456C55.5722 90.1702 54.3768 90.7364 53.1492 91.2402L56.2505 110.069C56.4107 110.07 56.571 110.071 56.7314 110.071C56.8919 110.071 57.0522 110.07 57.2124 110.069L60.3137 91.2402C59.0861 90.7364 57.8907 90.1702 56.7314 89.5456C57.4292 89.1696 58.1138 88.7725 58.7845 88.355C59.396 88.6576 60.0173 88.9434 60.6479 89.2117L61.039 86.8374C68.5348 81.393 73.9639 73.2761 75.927 63.8861L73.8014 64.2362C74.4098 61.6127 74.7314 58.8793 74.7314 56.0708C74.7314 54.6442 74.6485 53.237 74.4871 51.8538L64.5096 50.2104L60.7881 27.6169C59.5025 26.6189 58.1475 25.7061 56.7314 24.887C55.3154 25.7061 53.9604 26.6189 52.6748 27.6169L48.9533 50.2104L38.9758 51.8538C38.8144 53.237 38.7314 54.6442 38.7314 56.0708C38.7314 58.8793 39.0531 61.6127 39.6615 64.2362ZM51.9475 83.945L52.4239 86.8374C53.1562 87.3692 53.9081 87.8755 54.6784 88.355C55.3759 88.0098 56.0605 87.6428 56.7314 87.2546C57.4024 87.6428 58.087 88.0098 58.7845 88.355C59.5548 87.8755 60.3067 87.3692 61.039 86.8374L61.5154 83.945C67.5664 78.9931 71.9755 72.1097 73.8014 64.2362L64.5096 65.7667L61.5154 83.945C60.0167 85.1715 58.4173 86.2794 56.7314 87.2546C55.0456 86.2794 53.4462 85.1715 51.9475 83.945ZM51.9475 83.945L48.9533 65.7667L39.6615 64.2362C41.4874 72.1097 45.8965 78.9931 51.9475 83.945Z" fill="white"/>
</svg>
