<svg width="141" height="222" viewBox="0 0 141 222" fill="none" xmlns="http://www.w3.org/2000/svg">
<path fill-rule="evenodd" clip-rule="evenodd" d="M67.8424 21.0633L66.2301 53.9991L33.2943 55.6114L66.2608 57.2252L67.8424 157.931L69.4241 57.2252L102.391 55.6114L69.4547 53.9991L67.8424 21.0633ZM64.3211 52.0901L66.8436 0.5625H68.8412L71.3637 52.0901L122.891 54.6126V56.6102L71.3944 59.1312L68.8423 221.627H66.8425L64.2905 59.1312L12.7935 56.6102V54.6126L64.3211 52.0901Z" fill="white"/>
<path fill-rule="evenodd" clip-rule="evenodd" d="M87.3683 207.484C86.4536 207.065 85.0473 206.64 83.1791 206.262C79.3183 205.481 73.8949 204.984 67.8424 204.984C61.7899 204.984 56.3665 205.481 52.5057 206.262C50.6375 206.64 49.2312 207.065 48.3165 207.484C49.2312 207.902 50.6375 208.328 52.5057 208.705C56.3665 209.486 61.7899 209.984 67.8424 209.984C73.8949 209.984 79.3183 209.486 83.1791 208.705C85.0473 208.328 86.4536 207.902 87.3683 207.484ZM67.8424 211.984C80.1307 211.984 90.0924 209.969 90.0924 207.484C90.0924 204.998 80.1307 202.984 67.8424 202.984C55.5541 202.984 45.5924 204.998 45.5924 207.484C45.5924 209.969 55.5541 211.984 67.8424 211.984Z" fill="white"/>
<path fill-rule="evenodd" clip-rule="evenodd" d="M102.239 192.984C100.458 192.551 97.9898 192.143 94.9404 191.788C88.0445 190.985 78.463 190.484 67.8424 190.484C57.2219 190.484 47.6404 190.985 40.7445 191.788C37.6951 192.143 35.2271 192.551 33.4454 192.984C35.2271 193.416 37.6951 193.824 40.7445 194.179C47.6404 194.982 57.2219 195.484 67.8424 195.484C78.463 195.484 88.0445 194.982 94.9404 194.179C97.9898 193.824 100.458 193.416 102.239 192.984ZM67.8424 197.484C89.188 197.484 106.492 195.469 106.492 192.984C106.492 190.498 89.188 188.484 67.8424 188.484C46.4969 188.484 29.193 190.498 29.193 192.984C29.193 195.469 46.4969 197.484 67.8424 197.484Z" fill="white"/>
<path fill-rule="evenodd" clip-rule="evenodd" d="M126.809 179.538C126.796 179.543 126.783 179.547 126.77 179.551C120.615 181.521 97.8014 182.984 70.5991 182.984C43.3969 182.984 20.5831 181.521 14.4285 179.551C14.4154 179.547 14.4025 179.543 14.3896 179.538C13.3462 179.2 12.7935 178.847 12.7935 178.484C12.7935 178.121 13.3462 177.767 14.3896 177.429C14.4025 177.425 14.4154 177.421 14.4285 177.417C20.5831 175.446 43.3969 173.984 70.5991 173.984C97.8014 173.984 120.615 175.446 126.77 177.417C126.783 177.421 126.796 177.425 126.809 177.429C127.852 177.767 128.405 178.121 128.405 178.484C128.405 178.847 127.852 179.2 126.809 179.538ZM18.959 178.484C21.7021 178.047 25.4003 177.644 29.8796 177.296C40.2741 176.487 54.6713 175.984 70.5991 175.984C86.5269 175.984 100.924 176.487 111.319 177.296C115.798 177.644 119.496 178.047 122.239 178.484C119.496 178.92 115.798 179.323 111.319 179.672C100.924 180.481 86.5269 180.984 70.5991 180.984C54.6713 180.984 40.2741 180.481 29.8796 179.672C25.4003 179.323 21.7021 178.92 18.959 178.484Z" fill="white"/>
<path fill-rule="evenodd" clip-rule="evenodd" d="M138.677 164.969C138.609 164.989 138.54 165.008 138.469 165.027C131.172 167.009 103.554 168.484 70.5991 168.484C37.6439 168.484 10.0263 167.009 2.72966 165.027C2.65833 165.008 2.58894 164.989 2.52151 164.969C1.42317 164.652 0.84375 164.322 0.84375 163.984C0.84375 163.645 1.42317 163.315 2.52151 162.998C2.58894 162.979 2.65833 162.959 2.72965 162.94C10.0263 160.958 37.6439 159.484 70.5991 159.484C103.554 159.484 131.172 160.958 138.469 162.94C138.54 162.959 138.609 162.979 138.677 162.998C139.775 163.315 140.354 163.645 140.354 163.984C140.354 164.322 139.775 164.652 138.677 164.969ZM8.22442 163.984C11.5586 163.546 16.0231 163.145 21.4034 162.798C33.9716 161.987 51.3655 161.484 70.5991 161.484C89.8327 161.484 107.227 161.987 119.795 162.798C125.175 163.145 129.64 163.546 132.974 163.984C129.64 164.421 125.175 164.823 119.795 165.17C107.227 165.981 89.8327 166.484 70.5991 166.484C51.3655 166.484 33.9716 165.981 21.4034 165.17C16.0231 164.823 11.5586 164.421 8.22442 163.984Z" fill="white"/>
</svg>
