<svg width="111" height="222" viewBox="0 0 111 222" fill="none" xmlns="http://www.w3.org/2000/svg">
<path fill-rule="evenodd" clip-rule="evenodd" d="M55.0919 21.0633L53.4795 53.9991L20.5438 55.6114L53.5102 57.2252L55.0919 157.931L56.6735 57.2252L89.64 55.6114L56.7042 53.9991L55.0919 21.0633ZM51.5706 52.0901L54.0931 0.5625H56.0907L58.6131 52.0901L110.141 54.6126V56.6102L58.6438 59.1312L56.0917 221.627H54.092L51.5399 59.1312L0.0429688 56.6102V54.6126L51.5706 52.0901Z" fill="white"/>
<path fill-rule="evenodd" clip-rule="evenodd" d="M77.6251 161.451C83.7501 146.201 87.5834 124.996 87.5834 101.472C87.5834 77.9477 83.7501 56.7429 77.6251 41.493C74.5605 33.8627 70.9614 27.8216 67.0672 23.7207C63.1773 19.6243 59.1301 17.5948 55.0919 17.5948C51.0536 17.5948 47.0064 19.6243 43.1165 23.7207C39.2223 27.8216 35.6232 33.8627 32.5586 41.493C26.4336 56.7429 22.6003 77.9477 22.6003 101.472C22.6003 124.996 26.4336 146.201 32.5586 161.451C35.6232 169.081 39.2223 175.122 43.1165 179.223C47.0064 183.319 51.0536 185.349 55.0919 185.349C59.1301 185.349 63.1773 183.319 67.0672 179.223C70.9614 175.122 74.5605 169.081 77.6251 161.451ZM55.0919 187.349C74.141 187.349 89.5834 148.9 89.5834 101.472C89.5834 54.0433 74.141 15.5948 55.0919 15.5948C36.0427 15.5948 20.6003 54.0433 20.6003 101.472C20.6003 148.9 36.0427 187.349 55.0919 187.349Z" fill="white"/>
</svg>
