<svg width="112" height="141" viewBox="0 0 112 141" fill="none" xmlns="http://www.w3.org/2000/svg">
<path fill-rule="evenodd" clip-rule="evenodd" d="M54.9808 0.112305L52.3917 20.824C49.3691 45.0026 30.7981 64.3102 6.75537 68.2704L0.810547 69.2496V71.223L6.75537 72.2023C30.7981 76.1625 49.3691 95.4702 52.3917 119.649L54.9808 140.36H56.9653L59.5544 119.649C62.5769 95.4702 81.1481 76.1625 105.191 72.2023L111.136 71.223V69.2496L105.191 68.2704C81.1481 64.3102 62.5769 45.0024 59.5544 20.824L56.9653 0.112305H54.9808ZM54.3762 21.072L55.973 8.2981L57.5699 21.072C58.8005 30.916 62.5179 39.981 68.0891 47.6085C64.4805 45.6722 60.355 44.5739 55.973 44.5739C51.5911 44.5739 47.4657 45.6721 43.8571 47.6084C49.4282 39.9808 53.1456 30.916 54.3762 21.072ZM32.9495 58.8885C25.6031 64.6422 16.7919 68.6362 7.12585 70.2363C16.792 71.8364 25.6033 75.8306 32.9496 81.5842C31.26 78.1627 30.3105 74.3104 30.3105 70.2363C30.3105 66.1624 31.2599 62.3099 32.9495 58.8885ZM43.8569 92.8641C49.4281 100.492 53.1456 109.557 54.3762 119.401L55.973 132.175L57.5699 119.401C58.8005 109.557 62.5179 100.492 68.0892 92.8641C64.4805 94.8005 60.3551 95.8988 55.973 95.8988C51.5911 95.8988 47.4656 94.8004 43.8569 92.8641ZM78.9965 81.5844C86.3428 75.8306 95.1542 71.8364 104.82 70.2363C95.1542 68.6362 86.3429 64.6421 78.9966 58.8884C80.6862 62.3098 81.6355 66.1622 81.6355 70.2363C81.6355 74.3104 80.686 78.1628 78.9965 81.5844Z" fill="white"/>
</svg>
