<svg width="111" height="111" viewBox="0 0 111 111" fill="none" xmlns="http://www.w3.org/2000/svg">
<path fill-rule="evenodd" clip-rule="evenodd" d="M59.7892 27.0678L57.9221 15.7322C77.9497 16.9732 93.9744 32.998 95.2154 53.0256L83.88 51.1585C81.9911 38.7571 72.1906 28.9567 59.7892 27.0678ZM60.1324 29.1515L59.7892 27.0678C58.3638 26.8507 56.9041 26.7381 55.418 26.7381C53.9319 26.7381 52.4721 26.8507 51.0467 27.0678L52.9139 15.7322C53.742 15.6809 54.5769 15.6548 55.4179 15.6548C56.2589 15.6548 57.0939 15.6809 57.9221 15.7322L57.589 13.7102C78.9878 14.8031 96.1446 31.9599 97.2375 53.3587L95.2154 53.0256C95.2667 53.8537 95.2928 54.6887 95.2928 55.5298C95.2928 56.3708 95.2668 57.2057 95.2154 58.0338L83.88 59.9009C84.0971 58.4756 84.2097 57.0158 84.2097 55.5298C84.2097 54.0437 84.0971 52.5839 83.88 51.1585L81.7962 50.8153C79.8403 39.7974 71.1503 31.1074 60.1324 29.1515ZM50.7035 29.1516L51.0467 27.0678C38.6454 28.9567 28.8449 38.7572 26.956 51.1585L15.6203 53.0257C16.8613 32.998 32.8862 16.9731 52.9139 15.7322L53.2469 13.7102C53.966 13.6734 54.6897 13.6548 55.4179 13.6548C56.1461 13.6548 56.8699 13.6734 57.589 13.7102L55.7476 2.53079C84.7571 2.70747 108.24 26.1905 108.417 55.2001L97.2375 53.3587C97.2742 54.0777 97.2928 54.8016 97.2928 55.5298C97.2928 56.2579 97.2742 56.9817 97.2375 57.7008L95.2154 58.0338C93.9745 78.0615 77.9497 94.0863 57.922 95.3273L59.7892 83.9917C72.1906 82.1029 81.9911 72.3023 83.88 59.9009L81.7962 60.2442C82.0679 58.7137 82.2097 57.1383 82.2097 55.5298C82.2097 53.9212 82.0679 52.3458 81.7962 50.8153L63.1961 47.7515L60.1324 29.1515C58.6019 28.8799 57.0265 28.7381 55.418 28.7381C53.8095 28.7381 52.234 28.8799 50.7035 29.1516ZM29.0398 50.8153C30.9957 39.7974 39.6857 31.1075 50.7035 29.1516L47.6398 47.7515L29.0398 50.8153ZM29.0398 60.2442C28.7681 58.7137 28.6263 57.1383 28.6263 55.5298C28.6263 53.9212 28.7681 52.3458 29.0398 50.8153L26.956 51.1585C26.7389 52.5839 26.6263 54.0437 26.6263 55.5298C26.6263 57.0158 26.7389 58.4756 26.956 59.901L15.6203 58.0338C15.569 57.2057 15.543 56.3708 15.543 55.5298C15.543 54.6887 15.569 53.8538 15.6203 53.0257L13.5983 53.3587C14.6912 31.9599 31.8481 14.803 53.2469 13.7102L55.0884 2.53079C55.1981 2.53012 55.308 2.52979 55.4179 2.52979C55.5279 2.52979 55.6378 2.53012 55.7476 2.53079L55.418 0.529785C85.7936 0.529807 110.418 25.1541 110.418 55.5298L108.417 55.2001C108.418 55.3099 108.418 55.4198 108.418 55.5298C108.418 55.6397 108.418 55.7495 108.417 55.8593L97.2375 57.7008C96.1446 79.0996 78.9878 96.2564 57.589 97.3493L57.922 95.3273C57.0939 95.3786 56.2589 95.4047 55.4179 95.4047C54.5769 95.4047 53.742 95.3786 52.9139 95.3273L51.0467 83.9917C52.4722 84.2088 53.9319 84.3214 55.418 84.3214C56.904 84.3214 58.3638 84.2088 59.7892 83.9917L60.1324 81.908C71.1503 79.9521 79.8403 71.2621 81.7962 60.2442L63.1961 63.3079L60.1324 81.908C58.6019 82.1797 57.0265 82.3214 55.418 82.3214C53.8095 82.3214 52.234 82.1797 50.7035 81.908L47.6398 63.3079L29.0398 60.2442ZM29.0398 60.2442L26.956 59.901C28.8449 72.3023 38.6454 82.1028 51.0467 83.9917L50.7035 81.908C39.6857 79.952 30.9957 71.262 29.0398 60.2442ZM53.247 97.3494C53.966 97.3861 54.6897 97.4047 55.4179 97.4047C56.1461 97.4047 56.8699 97.3861 57.589 97.3493L55.7476 108.529C55.6378 108.529 55.5279 108.53 55.4179 108.53C55.308 108.53 55.1981 108.529 55.0884 108.529L53.247 97.3494ZM13.5983 57.7007L15.6203 58.0338C16.8613 78.0615 32.8862 94.0864 52.9139 95.3273L53.247 97.3494C31.8481 96.2565 14.6911 79.0996 13.5983 57.7007ZM2.41897 55.8593C2.59562 84.869 26.0787 108.352 55.0884 108.529L55.418 110.53C25.0423 110.53 0.417969 85.9054 0.417969 55.5297L2.41897 55.8593ZM2.41897 55.2001L0.417969 55.5297C0.417969 25.1541 25.0423 0.529785 55.418 0.529785L55.0884 2.53079C26.0788 2.70744 2.59565 26.1905 2.41897 55.2001ZM2.41897 55.2001L13.5983 53.3587C13.5616 54.0778 13.543 54.8016 13.543 55.5298C13.543 56.2579 13.5616 56.9817 13.5983 57.7007L2.41897 55.8593C2.4183 55.7495 2.41797 55.6397 2.41797 55.5298C2.41797 55.4198 2.4183 55.3099 2.41897 55.2001ZM55.418 110.53L55.7476 108.529C84.7572 108.352 108.24 84.8689 108.417 55.8593L110.418 55.5298C110.418 85.9054 85.7936 110.53 55.418 110.53ZM55.418 0.529785C55.418 0.529785 55.418 0.529785 55.418 0.529785V0.529785Z" fill="white"/>
</svg>
