<svg width="171" height="171" viewBox="0 0 171 171" fill="none" xmlns="http://www.w3.org/2000/svg">
<path fill-rule="evenodd" clip-rule="evenodd" d="M85.7172 23.2981L84.1204 36.0721C80.9899 61.1146 61.7649 81.1153 36.87 85.2363C61.7649 89.3574 80.9899 109.358 84.1204 134.401L85.7172 147.175L87.314 134.401C90.4445 109.358 109.669 89.3574 134.564 85.2363C109.669 81.1153 90.4445 61.1146 87.314 36.0721L85.7172 23.2981ZM82.1358 35.824L84.7249 15.1123L86.7095 15.1123L89.2986 35.824C92.3211 60.0025 110.892 79.3102 134.935 83.2704L140.88 84.2496L140.88 86.223L134.935 87.2023C110.892 91.1625 92.3211 110.47 89.2986 134.649L86.7095 155.36H84.7249L82.1358 134.649C79.1133 110.47 60.5422 91.1625 36.4995 87.2022L30.5547 86.223L30.5547 84.2496L36.4995 83.2704C60.5422 79.3102 79.1133 60.0025 82.1358 35.824Z" fill="white"/>
<path fill-rule="evenodd" clip-rule="evenodd" d="M85.7168 168.236C131.556 168.236 168.717 131.076 168.717 85.2363C168.717 39.3967 131.556 2.23633 85.7168 2.23633C39.8772 2.23633 2.7168 39.3967 2.7168 85.2363C2.7168 131.076 39.8772 168.236 85.7168 168.236ZM85.7168 170.236C132.661 170.236 170.717 132.181 170.717 85.2363C170.717 38.2921 132.661 0.236328 85.7168 0.236328C38.7726 0.236328 0.716797 38.2921 0.716797 85.2363C0.716797 132.181 38.7726 170.236 85.7168 170.236Z" fill="white"/>
</svg>
