<svg width="111" height="111" viewBox="0 0 111 111" fill="none" xmlns="http://www.w3.org/2000/svg">
<path fill-rule="evenodd" clip-rule="evenodd" d="M55.4008 6.72264L53.2716 19.6492C50.415 36.9915 36.8226 50.584 19.4803 53.4405L6.55369 55.5698L19.4803 57.699C36.8226 60.5555 50.415 74.148 53.2716 91.4903L55.4008 104.417L57.53 91.4903C60.3866 74.148 73.979 60.5555 91.3213 57.699L104.248 55.5698L91.3213 53.4405C73.979 50.584 60.3866 36.9916 57.53 19.6492L55.4008 6.72264ZM51.2982 19.3242L54.4141 0.407227L56.3875 0.407227L59.5034 19.3242C62.2206 35.8205 75.15 48.7499 91.6464 51.4671L110.563 54.583V56.5565L91.6464 59.6724C75.15 62.3896 62.2206 75.319 59.5034 91.8153L56.3875 110.732H54.4141L51.2982 91.8153C48.581 75.319 35.6516 62.3896 19.1552 59.6724L0.238281 56.5565L0.238281 54.583L19.1552 51.4671C35.6516 48.7499 48.581 35.8205 51.2982 19.3242Z" fill="white"/>
</svg>
