<svg width="111" height="141" viewBox="0 0 111 141" fill="none" xmlns="http://www.w3.org/2000/svg">
<path fill-rule="evenodd" clip-rule="evenodd" d="M55.2622 43.4483L54.3225 69.6292L28.1416 70.5688L54.3225 71.5085L55.2622 97.6894L56.2019 71.5085L82.3828 70.5688L56.2019 69.6292L55.2622 43.4483ZM52.3906 67.6972L54.2628 5.56885H56.2615L58.1338 67.6972L110.298 69.5695V71.5682L58.1338 73.4405L56.2615 135.069H54.2628L52.3906 73.4405L0.226318 71.5682V69.5695L52.3906 67.6972Z" fill="white"/>
<path fill-rule="evenodd" clip-rule="evenodd" d="M55.2621 8.63065L53.6653 21.4046C50.5348 46.4471 31.3099 66.4478 6.41488 70.5689C31.3099 74.6899 50.5348 94.6906 53.6653 119.733L55.2621 132.507L56.859 119.733C59.9895 94.6906 79.2144 74.6899 104.109 70.5689C79.2144 66.4478 59.9895 46.4471 56.859 21.4046L55.2621 8.63065ZM51.6807 21.1565L54.2699 0.444824L56.2544 0.444824L58.8435 21.1565C61.866 45.335 80.4371 64.6427 104.48 68.603L110.425 69.5822L110.425 71.5556L104.48 72.5348C80.4371 76.495 61.866 95.8027 58.8435 119.981L56.2544 140.693H54.2699L51.6808 119.981C48.6583 95.8027 30.0872 76.495 6.04443 72.5348L0.0996105 71.5556L0.0996094 69.5822L6.04444 68.603C30.0872 64.6427 48.6583 45.335 51.6807 21.1565Z" fill="white"/>
</svg>
