<svg width="151" height="149" viewBox="0 0 151 149" fill="none" xmlns="http://www.w3.org/2000/svg">
<path d="M75.6777 0.568848L76.946 34.7897C77.722 55.7259 94.521 72.5163 115.458 73.2816L150.678 74.5688L115.458 75.8561C94.521 76.6214 77.722 93.4118 76.946 114.348L75.6777 148.569L74.4094 114.348C73.6335 93.4118 56.8345 76.6214 35.8979 75.8561L0.677734 74.5688L35.8979 73.2816C56.8345 72.5163 73.6335 55.7259 74.4094 34.7897L75.6777 0.568848Z" fill="white"/>
<path d="M112.678 10.4829L96.6657 40.7532C86.8696 59.2724 93.0227 82.2129 110.772 93.3439L140.63 112.069L109.484 95.5735C90.9702 85.7679 68.0266 91.9094 56.8865 109.653L38.6777 138.655L54.6898 108.384C64.4859 89.8651 58.3328 66.9247 40.5837 55.7937L10.7258 37.0688L41.871 53.564C60.3853 63.3696 83.3288 57.2282 94.4689 39.4849L112.678 10.4829Z" fill="white"/>
<path d="M139.764 37.5688L110.762 55.7776C93.0183 66.9177 86.8769 89.8613 96.6825 108.376L113.178 139.521L94.4528 109.663C83.3218 91.9138 60.3814 85.7607 41.8621 95.5568L11.5919 111.569L40.5938 93.36C58.3372 82.22 64.4786 59.2764 54.673 40.7621L38.1777 9.61694L56.9026 39.4748C68.0336 57.2239 90.9741 63.377 109.493 53.5809L139.764 37.5688Z" fill="white"/>
</svg>
