<svg width="150" height="230" viewBox="0 0 150 230" fill="none" xmlns="http://www.w3.org/2000/svg">
<path fill-rule="evenodd" clip-rule="evenodd" d="M74.8934 29.3251L73.2811 62.2608L40.3453 63.8732L73.3118 65.487L74.8934 166.193L76.4751 65.487L109.442 63.8732L76.5058 62.2608L74.8934 29.3251ZM71.3722 60.3519L73.8946 8.82427H75.8922L78.4147 60.3519L129.942 62.8744V64.872L78.4454 67.3929L75.8933 229.889H73.8936L71.3415 67.3929L19.8445 64.872V62.8744L71.3722 60.3519Z" fill="white"/>
<path fill-rule="evenodd" clip-rule="evenodd" d="M66.9638 191.14C85.6458 178.375 105.1 156.91 120.793 129.729C136.486 102.548 145.348 74.9676 147.062 52.4063C148.787 29.6861 143.25 12.791 131.143 5.80107C119.037 -1.18885 101.637 2.46387 82.8231 15.3182C64.1411 28.0826 44.6871 49.5479 28.9941 76.7289C13.3011 103.91 4.43867 131.49 2.72536 154.052C0.999971 176.772 6.53654 193.667 18.6434 200.657C30.7504 207.647 48.1502 203.994 66.9638 191.14ZM17.6434 202.389C43.9495 217.577 90.9065 185.493 122.525 130.729C154.143 75.9644 158.45 19.2569 132.143 4.06902C105.837 -11.1188 58.8803 20.9644 27.262 75.7289C-4.35625 130.493 -8.66265 187.201 17.6434 202.389Z" fill="white"/>
<path fill-rule="evenodd" clip-rule="evenodd" d="M82.8231 191.14C64.1411 178.375 44.6871 156.91 28.9941 129.729C13.3011 102.548 4.43866 74.9676 2.72535 52.4063C0.999963 29.6861 6.53653 12.791 18.6434 5.80107C30.7503 -1.18885 48.1502 2.46387 66.9638 15.3182C85.6458 28.0826 105.1 49.5479 120.793 76.7289C136.486 103.91 145.348 131.49 147.062 154.052C148.787 176.772 143.25 193.667 131.143 200.657C119.037 207.647 101.637 203.994 82.8231 191.14ZM132.143 202.389C105.837 217.577 58.8803 185.493 27.262 130.729C-4.35626 75.9644 -8.66266 19.2569 17.6434 4.06902C43.9495 -11.1188 90.9065 20.9644 122.525 75.7289C154.143 130.493 158.45 187.201 132.143 202.389Z" fill="white"/>
</svg>
