<svg width="111" height="222" viewBox="0 0 111 222" fill="none" xmlns="http://www.w3.org/2000/svg">
<path fill-rule="evenodd" clip-rule="evenodd" d="M55.4571 21.0633L53.8448 53.9991L25.4213 55.3905C25.5586 54.7113 25.6982 54.037 25.8403 53.3676L51.9358 52.0901L53.5516 19.0844C54.1841 19.0698 54.8193 19.0625 55.4571 19.0625C56.0949 19.0625 56.7301 19.0698 57.3626 19.0844L58.9784 52.0901L85.074 53.3676C85.2161 54.037 85.3557 54.7113 85.493 55.3905L57.0694 53.9991L55.4571 21.0633ZM87.5532 55.4914L85.493 55.3905C85.5224 55.5361 85.5517 55.6819 85.5809 55.828L57.0387 57.2252L56.4681 93.5563C56.1319 93.5604 55.7948 93.5625 55.4571 93.5625C55.1194 93.5625 54.7823 93.5604 54.4461 93.5563L53.8755 57.2252L25.3334 55.828C25.3626 55.6819 25.3919 55.5361 25.4213 55.3905L23.3611 55.4914C23.4967 54.8124 23.6346 54.1382 23.775 53.4687L25.8403 53.3676C27.3206 46.3911 29.0585 39.9542 31.0121 34.1756C32.6161 29.4312 34.357 25.156 36.2065 21.4036C41.6342 20.0325 47.4677 19.2244 53.5516 19.0844L54.3231 3.32343C54.7019 3.28346 55.0799 3.26355 55.4572 3.26355C55.8344 3.26355 56.2124 3.28346 56.5911 3.32342L57.3626 19.0844C63.4466 19.2244 69.28 20.0325 74.7079 21.4037C76.5573 25.156 78.2983 29.4312 79.9022 34.1756C81.8559 39.9542 83.5937 46.3911 85.074 53.3676L87.1393 53.4687C87.2797 54.1382 87.4176 54.8124 87.5532 55.4914ZM87.6005 55.7291L85.5809 55.828C85.7122 56.4847 85.8413 57.1458 85.9681 57.8114L59.0091 59.1312L58.4692 93.5077C57.8052 93.5319 57.1381 93.5482 56.4681 93.5563L55.4571 157.931L54.4461 93.5563C53.7761 93.5482 53.109 93.5319 52.445 93.5077L51.9051 59.1312L24.9462 57.8114C25.073 57.1458 25.2021 56.4847 25.3334 55.828L23.3138 55.7291C23.3295 55.6498 23.3453 55.5705 23.3611 55.4914L20.909 55.6114L23.3138 55.7291C23.1833 56.386 23.0552 57.0472 22.9292 57.7127L0.409925 56.6103C0.408778 56.5111 0.408203 56.4119 0.408203 56.3125C0.408203 55.7419 0.427166 55.1742 0.464689 54.6098L23.775 53.4687C26.3467 41.1991 29.7103 30.5341 33.6547 22.0982C34.4947 21.8528 35.3455 21.6211 36.2065 21.4036C38.1972 17.3646 40.3136 13.9314 42.52 11.1709C46.4154 6.29748 50.4051 3.73695 54.3231 3.32343L54.4219 1.30528C54.7659 1.27752 55.111 1.26355 55.4572 1.26355C55.8033 1.26355 56.1484 1.27751 56.4923 1.30527L56.5911 3.32342C60.5091 3.7369 64.4989 6.29744 68.3943 11.1709C70.6007 13.9314 72.7171 17.3646 74.7079 21.4037C75.5689 21.6212 76.4197 21.8528 77.2596 22.0982C81.204 30.5341 84.5676 41.1991 87.1393 53.4687L110.45 54.6098C110.487 55.1742 110.506 55.7419 110.506 56.3125C110.506 56.4119 110.505 56.5111 110.504 56.6103L87.9851 57.7127C87.8591 57.0472 87.731 56.386 87.6005 55.7291ZM91.5786 84.4225C103.073 77.6538 110.376 67.7101 110.504 56.6103L110.506 56.6102V56.3125V54.6126L110.45 54.6098C109.479 40.0109 96.0897 27.5999 77.2596 22.0982C71.391 9.54694 64.2367 1.93026 56.4923 1.30527L56.4559 0.5625H54.4583L54.4219 1.30528C46.6775 1.93033 39.5233 9.54698 33.6547 22.0982C14.8245 27.5998 1.4353 40.0109 0.464689 54.6098L0.408203 54.6126V56.3125V56.6102L0.409925 56.6103C0.538364 67.7101 7.84142 77.6538 19.3357 84.4226C18.5986 93.069 18.2071 102.122 18.2071 111.445C18.2071 171.307 34.3465 220.02 54.4566 221.588L54.4572 221.627H55.4571H56.457L56.4576 221.588C76.5677 220.02 92.7071 171.308 92.7071 111.445C92.7071 102.122 92.3156 93.069 91.5786 84.4225ZM56.4576 221.588L56.4892 219.577C60.4399 219.198 64.4651 216.635 68.3943 211.72C72.6506 206.395 76.5717 198.566 79.9022 188.715C86.5564 169.033 90.7071 141.714 90.7071 111.445C90.7071 102.499 90.3446 93.8107 89.6619 85.5009C90.3129 85.1511 90.952 84.7915 91.5786 84.4225C90.7733 74.9748 89.5555 66.0124 87.9851 57.7127L85.9681 57.8114C87.6 66.3784 88.8547 75.6749 89.6619 85.5009C81.0031 90.1532 70.2264 93.0787 58.4692 93.5077L56.4892 219.577C56.1446 219.611 55.8005 219.627 55.4571 219.627C55.1137 219.627 54.7697 219.611 54.425 219.577L52.445 93.5077C40.6878 93.0787 29.9112 90.1533 21.2524 85.5009C22.0596 75.675 23.3143 66.3784 24.9462 57.8114L22.9292 57.7127C21.3588 66.0124 20.141 74.9749 19.3357 84.4226C19.9623 84.7916 20.6014 85.1511 21.2524 85.5009C20.5697 93.8107 20.2071 102.499 20.2071 111.445C20.2071 141.714 24.3579 169.033 31.0121 188.715C34.3426 198.566 38.2637 206.395 42.52 211.72C46.4492 216.635 50.4743 219.198 54.425 219.577L54.4566 221.588C54.7891 221.614 55.1226 221.627 55.4571 221.627C55.7917 221.627 56.1252 221.614 56.4576 221.588ZM87.6005 55.7291L90.0052 55.6114L87.5532 55.4914C87.569 55.5705 87.5848 55.6498 87.6005 55.7291Z" fill="white"/>
</svg>
