<svg width="111" height="111" viewBox="0 0 111 111" fill="none" xmlns="http://www.w3.org/2000/svg">
<path fill-rule="evenodd" clip-rule="evenodd" d="M9.44881 55.5693C32.7497 60.0228 51.0825 78.3555 55.5359 101.656C59.9893 78.3555 78.3221 60.0228 101.623 55.5693C78.3221 51.1159 59.9893 32.7831 55.5359 9.48223C51.0825 32.7831 32.7497 51.1159 9.44881 55.5693ZM0.500031 54.57C29.8955 53.5149 53.4815 29.9289 54.5365 0.533447H56.5353C57.5903 29.9289 81.1763 53.5149 110.572 54.57V56.5687C81.1763 57.6237 57.5903 81.2097 56.5353 110.605H54.5365C53.4815 81.2097 29.8955 57.6237 0.500031 56.5687V54.57Z" fill="white"/>
<path fill-rule="evenodd" clip-rule="evenodd" d="M9.44881 55.5693C32.7497 60.0228 51.0825 78.3555 55.5359 101.656C59.9893 78.3555 78.3221 60.0228 101.623 55.5693C78.3221 51.1159 59.9893 32.7831 55.5359 9.48223C51.0825 32.7831 32.7497 51.1159 9.44881 55.5693ZM0.500031 54.57C29.8955 53.5149 53.4815 29.9289 54.5365 0.533447H56.5353C57.5903 29.9289 81.1763 53.5149 110.572 54.57V56.5687C81.1763 57.6237 57.5903 81.2097 56.5353 110.605H54.5365C53.4815 81.2097 29.8955 57.6237 0.500031 56.5687V54.57Z" fill="white"/>
<path fill-rule="evenodd" clip-rule="evenodd" d="M62.0416 94.0606C64.1683 84.278 65.5002 70.6682 65.5002 55.5692C65.5002 40.4702 64.1683 26.8604 62.0416 17.0777C60.9747 12.1701 59.7304 8.33347 58.4142 5.77246C57.7546 4.48926 57.1271 3.62607 56.5763 3.10765C56.0351 2.59818 55.6947 2.5332 55.5359 2.5332C55.3771 2.5332 55.0367 2.59818 54.4955 3.10765C53.9447 3.62607 53.3172 4.48926 52.6576 5.77246C51.3414 8.33347 50.0971 12.1701 49.0302 17.0777C46.9035 26.8604 45.5716 40.4702 45.5716 55.5692C45.5716 70.6682 46.9035 84.278 49.0302 94.0606C50.0971 98.9682 51.3414 102.805 52.6576 105.366C53.3172 106.649 53.9447 107.512 54.4955 108.031C55.0367 108.54 55.3771 108.605 55.5359 108.605C55.6947 108.605 56.0351 108.54 56.5763 108.031C57.1271 107.512 57.7546 106.649 58.4142 105.366C59.7304 102.805 60.9747 98.9682 62.0416 94.0606ZM55.5359 110.605C62.1436 110.605 67.5002 85.9647 67.5002 55.5692C67.5002 25.1736 62.1436 0.533203 55.5359 0.533203C48.9282 0.533203 43.5716 25.1736 43.5716 55.5692C43.5716 85.9647 48.9282 110.605 55.5359 110.605Z" fill="white"/>
<path fill-rule="evenodd" clip-rule="evenodd" d="M62.0416 94.0606C64.1683 84.278 65.5002 70.6682 65.5002 55.5692C65.5002 40.4702 64.1683 26.8604 62.0416 17.0777C60.9747 12.1701 59.7304 8.33347 58.4142 5.77246C57.7546 4.48926 57.1271 3.62607 56.5763 3.10765C56.0351 2.59818 55.6947 2.5332 55.5359 2.5332C55.3771 2.5332 55.0367 2.59818 54.4955 3.10765C53.9447 3.62607 53.3172 4.48926 52.6576 5.77246C51.3414 8.33347 50.0971 12.1701 49.0302 17.0777C46.9035 26.8604 45.5716 40.4702 45.5716 55.5692C45.5716 70.6682 46.9035 84.278 49.0302 94.0606C50.0971 98.9682 51.3414 102.805 52.6576 105.366C53.3172 106.649 53.9447 107.512 54.4955 108.031C55.0367 108.54 55.3771 108.605 55.5359 108.605C55.6947 108.605 56.0351 108.54 56.5763 108.031C57.1271 107.512 57.7546 106.649 58.4142 105.366C59.7304 102.805 60.9747 98.9682 62.0416 94.0606ZM55.5359 110.605C62.1436 110.605 67.5002 85.9647 67.5002 55.5692C67.5002 25.1736 62.1436 0.533203 55.5359 0.533203C48.9282 0.533203 43.5716 25.1736 43.5716 55.5692C43.5716 85.9647 48.9282 110.605 55.5359 110.605Z" fill="white"/>
<path fill-rule="evenodd" clip-rule="evenodd" d="M17.0445 62.0749C26.8272 64.2016 40.437 65.5335 55.536 65.5335C70.635 65.5335 84.2448 64.2016 94.0274 62.0749C98.935 61.008 102.772 59.7637 105.333 58.4475C106.616 57.7879 107.479 57.1604 107.997 56.6096C108.507 56.0684 108.572 55.728 108.572 55.5692C108.572 55.4104 108.507 55.07 107.997 54.5288C107.479 53.978 106.616 53.3505 105.333 52.6909C102.772 51.3747 98.935 50.1304 94.0274 49.0635C84.2448 46.9368 70.635 45.6049 55.536 45.6049C40.437 45.6049 26.8272 46.9368 17.0445 49.0635C12.1369 50.1304 8.30027 51.3746 5.73925 52.6909C4.45605 53.3505 3.59287 53.978 3.07445 54.5288C2.56497 55.07 2.5 55.4104 2.5 55.5692C2.5 55.728 2.56497 56.0684 3.07445 56.6096C3.59287 57.1604 4.45605 57.7879 5.73925 58.4475C8.30027 59.7637 12.1369 61.008 17.0445 62.0749ZM0.5 55.5692C0.5 62.1769 25.1404 67.5335 55.536 67.5335C85.9315 67.5335 110.572 62.1769 110.572 55.5692C110.572 48.9615 85.9315 43.6049 55.536 43.6049C25.1404 43.6049 0.5 48.9615 0.5 55.5692Z" fill="white"/>
<path fill-rule="evenodd" clip-rule="evenodd" d="M17.0445 62.0749C26.8272 64.2016 40.437 65.5335 55.536 65.5335C70.635 65.5335 84.2448 64.2016 94.0274 62.0749C98.935 61.008 102.772 59.7637 105.333 58.4475C106.616 57.7879 107.479 57.1604 107.997 56.6096C108.507 56.0684 108.572 55.728 108.572 55.5692C108.572 55.4104 108.507 55.07 107.997 54.5288C107.479 53.978 106.616 53.3505 105.333 52.6909C102.772 51.3747 98.935 50.1304 94.0274 49.0635C84.2448 46.9368 70.635 45.6049 55.536 45.6049C40.437 45.6049 26.8272 46.9368 17.0445 49.0635C12.1369 50.1304 8.30027 51.3746 5.73925 52.6909C4.45605 53.3505 3.59287 53.978 3.07445 54.5288C2.56497 55.07 2.5 55.4104 2.5 55.5692C2.5 55.728 2.56497 56.0684 3.07445 56.6096C3.59287 57.1604 4.45605 57.7879 5.73925 58.4475C8.30027 59.7637 12.1369 61.008 17.0445 62.0749ZM0.5 55.5692C0.5 62.1769 25.1404 67.5335 55.536 67.5335C85.9315 67.5335 110.572 62.1769 110.572 55.5692C110.572 48.9615 85.9315 43.6049 55.536 43.6049C25.1404 43.6049 0.5 48.9615 0.5 55.5692Z" fill="white"/>
</svg>
