<svg width="123" height="123" viewBox="0 0 123 123" fill="none" xmlns="http://www.w3.org/2000/svg">
<path fill-rule="evenodd" clip-rule="evenodd" d="M67.8699 55.781L61.832 19.1246L55.7942 55.781L19.1378 61.8188L55.7942 67.8567L61.832 104.513L67.8699 67.8567L104.526 61.8188L67.8699 55.781ZM116.832 61.8188L69.6102 69.597L61.832 116.819L54.0539 69.597L6.83203 61.8188L54.0539 54.0407L61.832 6.81885L69.6102 54.0407L116.832 61.8188Z" fill="white"/>
<path fill-rule="evenodd" clip-rule="evenodd" d="M73.6199 61.781L67.582 25.1246L61.5442 61.781L24.8878 67.8188L61.5442 73.8567L67.582 110.513L73.6199 73.8567L110.276 67.8188L73.6199 61.781ZM122.582 67.8188L75.3602 75.597L67.582 122.819L59.8039 75.597L12.582 67.8188L59.8039 60.0407L67.582 12.8188L75.3602 60.0407L122.582 67.8188Z" fill="white"/>
<path d="M55.582 0.318848L63.3602 47.5407L110.582 55.3188L63.3602 63.097L55.582 110.319L47.8039 63.097L0.582031 55.3188L47.8039 47.5407L55.582 0.318848Z" fill="white"/>
</svg>
