<svg width="185" height="222" viewBox="0 0 185 222" fill="none" xmlns="http://www.w3.org/2000/svg">
<path fill-rule="evenodd" clip-rule="evenodd" d="M92.0566 21.0633L90.4443 53.9991L57.5085 55.6114L90.475 57.2252L92.0566 157.931L93.6383 57.2252L126.605 55.6114L93.669 53.9991L92.0566 21.0633ZM88.5354 52.0901L91.0578 0.5625H93.0555L95.5779 52.0901L147.106 54.6126V56.6102L95.6086 59.1312L93.0565 221.627H91.0568L88.5047 59.1312L37.0078 56.6102V54.6126L88.5354 52.0901Z" fill="white"/>
<path fill-rule="evenodd" clip-rule="evenodd" d="M182.057 119.112C182.057 119.111 182.057 119.108 182.056 119.103C182.055 119.098 182.053 119.087 182.047 119.07C182.034 119.035 182.005 118.968 181.937 118.869C181.794 118.662 181.516 118.37 181.022 118.016C180.024 117.3 178.424 116.528 176.171 115.746C171.691 114.192 165.098 112.759 156.82 111.544C140.294 109.119 117.396 107.611 92.0566 107.611C66.7175 107.611 43.8192 109.119 27.2932 111.544C19.0149 112.759 12.4222 114.192 7.94199 115.746C5.68925 116.528 4.08938 117.3 3.09125 118.016C2.59691 118.37 2.31933 118.662 2.17618 118.869C2.10796 118.968 2.07881 119.035 2.06674 119.07C2.06073 119.087 2.05843 119.098 2.05753 119.103C2.05666 119.108 2.05664 119.111 2.05664 119.111C2.05664 119.112 2.05666 119.114 2.05753 119.119C2.05843 119.125 2.06073 119.136 2.06674 119.153C2.07881 119.188 2.10796 119.255 2.17618 119.353C2.31933 119.56 2.59691 119.852 3.09125 120.207C4.08938 120.922 5.68925 121.695 7.94199 122.477C12.4222 124.031 19.0149 125.464 27.2932 126.678C43.8192 129.103 66.7175 130.611 92.0566 130.611C117.396 130.611 140.294 129.103 156.82 126.678C165.098 125.464 171.691 124.031 176.171 122.477C178.424 121.695 180.024 120.922 181.022 120.207C181.516 119.852 181.794 119.56 181.937 119.353C182.005 119.255 182.034 119.188 182.047 119.153C182.053 119.136 182.055 119.125 182.056 119.119C182.056 119.115 182.057 119.113 182.057 119.112ZM92.0566 132.611C142.867 132.611 184.057 126.567 184.057 119.111C184.057 111.655 142.867 105.611 92.0566 105.611C41.2464 105.611 0.0566406 111.655 0.0566406 119.111C0.0566406 126.567 41.2464 132.611 92.0566 132.611Z" fill="white"/>
<path fill-rule="evenodd" clip-rule="evenodd" d="M182.057 119.112C182.057 119.111 182.057 119.108 182.056 119.103C182.055 119.098 182.053 119.087 182.047 119.07C182.034 119.035 182.005 118.968 181.937 118.869C181.794 118.662 181.516 118.37 181.022 118.016C180.024 117.3 178.424 116.528 176.171 115.746C171.691 114.192 165.098 112.759 156.82 111.544C140.294 109.119 117.396 107.611 92.0566 107.611C66.7175 107.611 43.8192 109.119 27.2932 111.544C19.0149 112.759 12.4222 114.192 7.94199 115.746C5.68925 116.528 4.08938 117.3 3.09125 118.016C2.59691 118.37 2.31933 118.662 2.17618 118.869C2.10796 118.968 2.07881 119.035 2.06674 119.07C2.06073 119.087 2.05843 119.098 2.05753 119.103C2.05666 119.108 2.05664 119.111 2.05664 119.111C2.05664 119.112 2.05666 119.114 2.05753 119.119C2.05843 119.125 2.06073 119.136 2.06674 119.153C2.07881 119.188 2.10796 119.255 2.17618 119.353C2.31933 119.56 2.59691 119.852 3.09125 120.207C4.08938 120.922 5.68925 121.695 7.94199 122.477C12.4222 124.031 19.0149 125.464 27.2932 126.678C43.8192 129.103 66.7175 130.611 92.0566 130.611C117.396 130.611 140.294 129.103 156.82 126.678C165.098 125.464 171.691 124.031 176.171 122.477C178.424 121.695 180.024 120.922 181.022 120.207C181.516 119.852 181.794 119.56 181.937 119.353C182.005 119.255 182.034 119.188 182.047 119.153C182.053 119.136 182.055 119.125 182.056 119.119C182.056 119.115 182.057 119.113 182.057 119.112ZM92.0566 132.611C142.867 132.611 184.057 126.567 184.057 119.111C184.057 111.655 142.867 105.611 92.0566 105.611C41.2464 105.611 0.0566406 111.655 0.0566406 119.111C0.0566406 126.567 41.2464 132.611 92.0566 132.611Z" fill="white"/>
<path fill-rule="evenodd" clip-rule="evenodd" d="M182.057 132.612C182.057 132.611 182.057 132.608 182.056 132.603C182.055 132.598 182.053 132.587 182.047 132.57C182.034 132.535 182.005 132.468 181.937 132.369C181.794 132.162 181.516 131.87 181.022 131.516C180.024 130.8 178.424 130.028 176.171 129.246C171.691 127.692 165.098 126.259 156.82 125.044C140.294 122.619 117.396 121.111 92.0566 121.111C66.7175 121.111 43.8192 122.619 27.2932 125.044C19.0149 126.259 12.4222 127.692 7.94199 129.246C5.68925 130.028 4.08938 130.8 3.09125 131.516C2.59691 131.87 2.31933 132.162 2.17618 132.369C2.10796 132.468 2.07881 132.535 2.06674 132.57C2.06073 132.587 2.05843 132.598 2.05753 132.603C2.05666 132.608 2.05664 132.611 2.05664 132.611C2.05664 132.612 2.05666 132.614 2.05753 132.619C2.05843 132.625 2.06073 132.636 2.06674 132.653C2.07881 132.688 2.10796 132.755 2.17618 132.853C2.31933 133.06 2.59691 133.352 3.09125 133.707C4.08938 134.422 5.68925 135.195 7.94199 135.977C12.4222 137.531 19.0149 138.964 27.2932 140.178C43.8192 142.603 66.7175 144.111 92.0566 144.111C117.396 144.111 140.294 142.603 156.82 140.178C165.098 138.964 171.691 137.531 176.171 135.977C178.424 135.195 180.024 134.422 181.022 133.707C181.516 133.352 181.794 133.06 181.937 132.853C182.005 132.755 182.034 132.688 182.047 132.653C182.053 132.636 182.055 132.625 182.056 132.619C182.056 132.615 182.057 132.613 182.057 132.612ZM92.0566 146.111C142.867 146.111 184.057 140.067 184.057 132.611C184.057 125.155 142.867 119.111 92.0566 119.111C41.2464 119.111 0.0566406 125.155 0.0566406 132.611C0.0566406 140.067 41.2464 146.111 92.0566 146.111Z" fill="white"/>
<path fill-rule="evenodd" clip-rule="evenodd" d="M182.057 146.112C182.057 146.111 182.057 146.108 182.056 146.103C182.055 146.098 182.053 146.087 182.047 146.07C182.034 146.035 182.005 145.968 181.937 145.869C181.794 145.662 181.516 145.37 181.022 145.016C180.024 144.3 178.424 143.528 176.171 142.746C171.691 141.192 165.098 139.759 156.82 138.544C140.294 136.119 117.396 134.611 92.0566 134.611C66.7175 134.611 43.8192 136.119 27.2932 138.544C19.0149 139.759 12.4222 141.192 7.94199 142.746C5.68925 143.528 4.08938 144.3 3.09125 145.016C2.59691 145.37 2.31933 145.662 2.17618 145.869C2.10796 145.968 2.07881 146.035 2.06674 146.07C2.06073 146.087 2.05843 146.098 2.05753 146.103C2.05666 146.108 2.05664 146.111 2.05664 146.111C2.05664 146.112 2.05666 146.114 2.05753 146.119C2.05843 146.125 2.06073 146.136 2.06674 146.153C2.07881 146.188 2.10796 146.255 2.17618 146.353C2.31933 146.56 2.59691 146.852 3.09125 147.207C4.08938 147.922 5.68925 148.695 7.94199 149.477C12.4222 151.031 19.0149 152.464 27.2932 153.678C43.8192 156.103 66.7175 157.611 92.0566 157.611C117.396 157.611 140.294 156.103 156.82 153.678C165.098 152.464 171.691 151.031 176.171 149.477C178.424 148.695 180.024 147.922 181.022 147.207C181.516 146.852 181.794 146.56 181.937 146.353C182.005 146.255 182.034 146.188 182.047 146.153C182.053 146.136 182.055 146.125 182.056 146.119C182.056 146.115 182.057 146.113 182.057 146.112ZM92.0566 159.611C142.867 159.611 184.057 153.567 184.057 146.111C184.057 138.655 142.867 132.611 92.0566 132.611C41.2464 132.611 0.0566406 138.655 0.0566406 146.111C0.0566406 153.567 41.2464 159.611 92.0566 159.611Z" fill="white"/>
<path fill-rule="evenodd" clip-rule="evenodd" d="M182.057 159.612C182.057 159.611 182.057 159.608 182.056 159.603C182.055 159.598 182.053 159.587 182.047 159.57C182.034 159.535 182.005 159.468 181.937 159.369C181.794 159.162 181.516 158.87 181.022 158.516C180.024 157.8 178.424 157.028 176.171 156.246C171.691 154.692 165.098 153.259 156.82 152.044C140.294 149.619 117.396 148.111 92.0566 148.111C66.7175 148.111 43.8192 149.619 27.2932 152.044C19.0149 153.259 12.4222 154.692 7.94199 156.246C5.68925 157.028 4.08938 157.8 3.09125 158.516C2.59691 158.87 2.31933 159.162 2.17618 159.369C2.10796 159.468 2.07881 159.535 2.06674 159.57C2.06073 159.587 2.05843 159.598 2.05753 159.603C2.05666 159.608 2.05664 159.611 2.05664 159.611C2.05664 159.612 2.05666 159.614 2.05753 159.619C2.05843 159.625 2.06073 159.636 2.06674 159.653C2.07881 159.688 2.10796 159.755 2.17618 159.853C2.31933 160.06 2.59691 160.352 3.09125 160.707C4.08938 161.422 5.68925 162.195 7.94199 162.977C12.4222 164.531 19.0149 165.964 27.2932 167.178C43.8192 169.603 66.7175 171.111 92.0566 171.111C117.396 171.111 140.294 169.603 156.82 167.178C165.098 165.964 171.691 164.531 176.171 162.977C178.424 162.195 180.024 161.422 181.022 160.707C181.516 160.352 181.794 160.06 181.937 159.853C182.005 159.755 182.034 159.688 182.047 159.653C182.053 159.636 182.055 159.625 182.056 159.619C182.056 159.615 182.057 159.613 182.057 159.612ZM92.0566 173.111C142.867 173.111 184.057 167.067 184.057 159.611C184.057 152.155 142.867 146.111 92.0566 146.111C41.2464 146.111 0.0566406 152.155 0.0566406 159.611C0.0566406 167.067 41.2464 173.111 92.0566 173.111Z" fill="white"/>
<path fill-rule="evenodd" clip-rule="evenodd" d="M182.057 173.112C182.057 173.111 182.057 173.108 182.056 173.103C182.055 173.098 182.053 173.087 182.047 173.07C182.034 173.035 182.005 172.968 181.937 172.869C181.794 172.662 181.516 172.37 181.022 172.016C180.024 171.3 178.424 170.528 176.171 169.746C171.691 168.192 165.098 166.759 156.82 165.544C140.294 163.119 117.396 161.611 92.0566 161.611C66.7175 161.611 43.8192 163.119 27.2932 165.544C19.0149 166.759 12.4222 168.192 7.94199 169.746C5.68925 170.528 4.08938 171.3 3.09125 172.016C2.59691 172.37 2.31933 172.662 2.17618 172.869C2.10796 172.968 2.07881 173.035 2.06674 173.07C2.06073 173.087 2.05843 173.098 2.05753 173.103C2.05666 173.108 2.05664 173.111 2.05664 173.111C2.05664 173.112 2.05666 173.114 2.05753 173.119C2.05843 173.125 2.06073 173.136 2.06674 173.153C2.07881 173.188 2.10796 173.255 2.17618 173.353C2.31933 173.56 2.59691 173.852 3.09125 174.207C4.08938 174.922 5.68925 175.695 7.94199 176.477C12.4222 178.031 19.0149 179.464 27.2932 180.678C43.8192 183.103 66.7175 184.611 92.0566 184.611C117.396 184.611 140.294 183.103 156.82 180.678C165.098 179.464 171.691 178.031 176.171 176.477C178.424 175.695 180.024 174.922 181.022 174.207C181.516 173.852 181.794 173.56 181.937 173.353C182.005 173.255 182.034 173.188 182.047 173.153C182.053 173.136 182.055 173.125 182.056 173.119C182.056 173.115 182.057 173.113 182.057 173.112ZM92.0566 186.611C142.867 186.611 184.057 180.567 184.057 173.111C184.057 165.655 142.867 159.611 92.0566 159.611C41.2464 159.611 0.0566406 165.655 0.0566406 173.111C0.0566406 180.567 41.2464 186.611 92.0566 186.611Z" fill="white"/>
</svg>
