<svg width="178" height="178" viewBox="0 0 178 178" fill="none" xmlns="http://www.w3.org/2000/svg">
<path fill-rule="evenodd" clip-rule="evenodd" d="M37.5085 74.8558C58.0092 74.8558 74.6283 58.2367 74.6283 37.736C74.6283 17.2353 58.0092 0.616211 37.5085 0.616211C17.0078 0.616211 0.388672 17.2353 0.388672 37.736C0.388672 58.2367 17.0078 74.8558 37.5085 74.8558ZM37.5085 72.8558C56.9046 72.8558 72.6283 57.1322 72.6283 37.736C72.6283 18.3399 56.9046 2.61621 37.5085 2.61621C18.1123 2.61621 2.38867 18.3399 2.38867 37.736C2.38867 57.1322 18.1123 72.8558 37.5085 72.8558Z" fill="white"/>
<path fill-rule="evenodd" clip-rule="evenodd" d="M85.483 39.3236L88.0721 18.6119H90.0567L92.6458 39.3236C95.6683 63.5021 114.239 82.8099 138.282 86.7701L144.227 87.7493L144.227 89.7227L138.282 90.7019C114.239 94.6621 95.6683 113.97 92.6458 138.148L90.0567 158.86H88.0721L85.483 138.148C82.4605 113.97 63.8894 94.6621 39.8467 90.7019L33.9019 89.7227V87.7493L39.8467 86.7701C63.8894 82.8098 82.4605 63.5021 85.483 39.3236ZM89.0644 26.7978L87.4675 39.5717C84.3371 64.6142 65.1121 84.615 40.2171 88.736C65.1121 92.857 84.3371 112.858 87.4675 137.9L89.0644 150.674L90.6612 137.9C93.7917 112.858 113.017 92.857 137.912 88.736C113.017 84.6149 93.7917 64.6142 90.6612 39.5717L89.0644 26.7978Z" fill="white"/>
<path fill-rule="evenodd" clip-rule="evenodd" d="M37.5085 177.856C58.0092 177.856 74.6283 161.237 74.6283 140.736C74.6283 120.235 58.0092 103.616 37.5085 103.616C17.0078 103.616 0.388672 120.235 0.388672 140.736C0.388672 161.237 17.0078 177.856 37.5085 177.856ZM37.5085 175.856C56.9046 175.856 72.6283 160.132 72.6283 140.736C72.6283 121.34 56.9046 105.616 37.5085 105.616C18.1123 105.616 2.38867 121.34 2.38867 140.736C2.38867 160.132 18.1123 175.856 37.5085 175.856Z" fill="white"/>
<path fill-rule="evenodd" clip-rule="evenodd" d="M177.847 140.736C177.847 161.237 161.228 177.856 140.727 177.856C120.226 177.856 103.607 161.237 103.607 140.736C103.607 120.235 120.226 103.616 140.727 103.616C161.228 103.616 177.847 120.235 177.847 140.736ZM175.847 140.736C175.847 160.132 160.123 175.856 140.727 175.856C121.331 175.856 105.607 160.132 105.607 140.736C105.607 121.34 121.331 105.616 140.727 105.616C160.123 105.616 175.847 121.34 175.847 140.736Z" fill="white"/>
<path fill-rule="evenodd" clip-rule="evenodd" d="M177.847 37.736C177.847 58.2367 161.228 74.8558 140.727 74.8558C120.226 74.8558 103.607 58.2367 103.607 37.736C103.607 17.2353 120.226 0.616211 140.727 0.616211C161.228 0.616211 177.847 17.2353 177.847 37.736ZM175.847 37.736C175.847 57.1322 160.123 72.8558 140.727 72.8558C121.331 72.8558 105.607 57.1322 105.607 37.736C105.607 18.3399 121.331 2.61621 140.727 2.61621C160.123 2.61621 175.847 18.3399 175.847 37.736Z" fill="white"/>
</svg>
