<svg width="128" height="111" viewBox="0 0 128 111" fill="none" xmlns="http://www.w3.org/2000/svg">
<path fill-rule="evenodd" clip-rule="evenodd" d="M18.4671 69.4728C7.24732 65.8211 0.333984 60.8286 0.333984 55.3232C0.333984 49.8179 7.24732 44.8253 18.4671 41.1736C12.9707 38.476 9.77963 35.2604 9.77963 31.808C9.77963 27.2746 15.2822 23.1493 24.2818 20.0692C22.2136 18.469 21.0732 16.7167 21.0732 14.8798C21.0732 7.34303 40.2709 1.23034 63.9824 1.20546L64.1277 0.323242L64.273 1.20546C87.9845 1.23034 107.182 7.34303 107.182 14.8798C107.182 16.7167 106.042 18.469 103.974 20.0692C112.973 23.1493 118.476 27.2746 118.476 31.808C118.476 35.2604 115.285 38.476 109.788 41.1736C121.008 44.8253 127.921 49.8179 127.921 55.3232C127.921 60.8286 121.008 65.8211 109.788 69.4728C115.285 72.1704 118.476 75.3861 118.476 78.8384C118.476 83.3719 112.973 87.4972 103.974 90.5773C106.042 92.1775 107.182 93.9298 107.182 95.7667C107.182 103.303 87.9845 109.416 64.273 109.441L64.1277 110.323L63.9824 109.441C40.2709 109.416 21.0732 103.303 21.0732 95.7667C21.0732 93.9297 22.2136 92.1774 24.2818 90.5772C15.2822 87.4971 9.77963 83.3719 9.77963 78.8384C9.77963 75.3861 12.9707 72.1704 18.4671 69.4728ZM9.12769 55.3232L50.4445 48.5177C38.6911 47.5496 28.4826 45.3636 21.2337 42.4091C20.6877 42.5706 20.1511 42.735 19.6241 42.9024C13.9626 44.7006 9.52625 46.7996 6.54814 49.0359C3.53547 51.2981 2.33398 53.4437 2.33398 55.3232C2.33398 57.2028 3.53547 59.3483 6.54814 61.6106C9.52624 63.8469 13.9626 65.9459 19.6241 67.744C20.1511 67.9114 20.6877 68.0759 21.2337 68.2373C28.4826 65.2829 38.6911 63.0969 50.4443 62.1287L9.12769 55.3232ZM107.022 68.2373C107.568 68.0759 108.104 67.9114 108.631 67.744C114.293 65.9459 118.729 63.8469 121.707 61.6106C124.72 59.3483 125.921 57.2028 125.921 55.3232C125.921 53.4437 124.72 51.2981 121.707 49.0359C118.729 46.7996 114.293 44.7006 108.631 42.9024C108.104 42.7351 107.568 42.5706 107.022 42.4092C99.7728 45.3636 89.5643 47.5496 77.8109 48.5177L119.128 55.3232L77.8111 62.1287C89.5643 63.0969 99.7728 65.2829 107.022 68.2373ZM106.904 40.2918C109.394 39.234 111.442 38.1007 113.004 36.9276C115.539 35.0243 116.476 33.2734 116.476 31.808C116.476 30.3427 115.539 28.5917 113.004 26.6884C110.504 24.811 106.759 23.0353 101.952 21.5085L101.85 21.4763C95.2269 25.2891 83.0394 27.9904 68.7649 28.4759L69.863 35.1426C84.0594 35.5444 96.9179 37.4231 106.904 40.2918ZM70.1942 37.1531C82.8951 37.5375 94.4548 39.1153 103.752 41.507C103.17 41.7111 102.57 41.9114 101.952 42.1075C94.0441 44.6192 83.5641 46.3624 71.7991 46.8968L70.1942 37.1531ZM58.0612 37.1531L56.4563 46.8968C44.6913 46.3624 34.2114 44.6192 26.3032 42.1075C25.6856 41.9114 25.0855 41.7111 24.5034 41.507C33.8006 39.1153 45.3603 37.5375 58.0612 37.1531ZM58.3924 35.1426C44.196 35.5444 31.3375 37.4231 21.351 40.2917C18.8616 39.234 16.8136 38.1007 15.2515 36.9276C12.7168 35.0243 11.7796 33.2734 11.7796 31.808C11.7796 30.3427 12.7168 28.5917 15.2515 26.6884C17.7516 24.811 21.4963 23.0352 26.3032 21.5085L26.4049 21.4763C33.0285 25.2891 45.216 27.9904 59.4905 28.4759L58.3924 35.1426ZM103.752 69.1394C94.4548 71.5311 82.8951 73.1089 70.1942 73.4933L71.7991 63.7497C83.5641 64.284 94.0441 66.0272 101.952 68.5389C102.57 68.7351 103.17 68.9354 103.752 69.1394ZM69.863 75.5039C84.0594 75.1021 96.9179 73.2233 106.904 70.3547C109.394 71.4124 111.442 72.5458 113.004 73.7188C115.539 75.6221 116.476 77.3731 116.476 78.8384C116.476 80.3038 115.539 82.0547 113.004 83.958C110.504 85.8354 106.759 87.6112 101.952 89.1379L101.85 89.1702C95.2268 85.3574 83.0394 82.6561 68.7649 82.1706L69.863 75.5039ZM58.3924 75.5039L59.4905 82.1706C45.216 82.6561 33.0286 85.3574 26.405 89.1701L26.3032 89.1379C21.4963 87.6112 17.7516 85.8354 15.2515 83.958C12.7168 82.0547 11.7796 80.3038 11.7796 78.8384C11.7796 77.3731 12.7168 75.6221 15.2515 73.7188C16.8136 72.5458 18.8616 71.4124 21.351 70.3547C31.3375 73.2233 44.1959 75.1021 58.3924 75.5039ZM58.0612 73.4933C45.3603 73.1089 33.8006 71.5311 24.5034 69.1394C25.0855 68.9354 25.6856 68.7351 26.3032 68.5389C34.2114 66.0273 44.6913 64.284 56.4563 63.7497L58.0612 73.4933ZM102.598 18.6032C102.286 18.8375 101.948 19.0703 101.585 19.3009C92.3635 16.5143 80.0642 14.7457 66.4731 14.5624L64.6026 3.20621C76.1538 3.24643 86.5213 4.7521 93.9664 7.1167C97.7514 8.31885 100.669 9.70818 102.598 11.1564C104.561 12.6306 105.182 13.9097 105.182 14.8798C105.182 15.8499 104.561 17.129 102.598 18.6032ZM99.0882 20.6634C90.4025 18.2828 79.1815 16.7602 66.8034 16.5674L68.437 26.4856C78.4397 26.1652 87.3552 24.7427 93.9664 22.643C95.9071 22.0265 97.6199 21.3609 99.0882 20.6634ZM59.8183 26.4856L61.452 16.5674C49.0739 16.7602 37.8529 18.2828 29.1672 20.6634C30.6355 21.3609 32.3482 22.0265 34.289 22.6429C40.9001 24.7427 49.8157 26.1652 59.8183 26.4856ZM26.6708 19.3009C35.8919 16.5143 48.1911 14.7457 61.7823 14.5624L63.6528 3.20621C52.1015 3.24643 41.734 4.7521 34.289 7.1167C30.504 8.31885 27.5862 9.70818 25.6576 11.1564C23.6944 12.6306 23.0732 13.9097 23.0732 14.8798C23.0732 15.8499 23.6944 17.129 25.6576 18.6032C25.9696 18.8375 26.3075 19.0703 26.6708 19.3009ZM26.6708 91.3455C26.3075 91.5762 25.9696 91.809 25.6576 92.0433C23.6944 93.5174 23.0732 94.7966 23.0732 95.7667C23.0732 96.7368 23.6944 98.0159 25.6576 99.4901C27.5862 100.938 30.504 102.328 34.289 103.53C41.734 105.894 52.1015 107.4 63.6528 107.44L61.7823 96.084C48.1912 95.9007 35.8919 94.1321 26.6708 91.3455ZM61.452 94.079C49.0739 93.8862 37.8529 92.3637 29.1672 89.9831C30.6355 89.2855 32.3483 88.6199 34.289 88.0035C40.9001 85.9038 49.8157 84.4813 59.8183 84.1609L61.452 94.079ZM66.4731 96.084L64.6026 107.44C76.1538 107.4 86.5213 105.894 93.9664 103.53C97.7514 102.328 100.669 100.938 102.598 99.4901C104.561 98.0159 105.182 96.7368 105.182 95.7667C105.182 94.7966 104.561 93.5174 102.598 92.0433C102.286 91.809 101.948 91.5762 101.585 91.3455C92.3634 94.1322 80.0642 95.9008 66.4731 96.084ZM99.0881 89.9831C90.4025 92.3637 79.1815 93.8862 66.8034 94.079L68.437 84.1609C78.4397 84.4813 87.3552 85.9038 93.9664 88.0035C95.9071 88.6199 97.6198 89.2856 99.0881 89.9831Z" fill="white"/>
</svg>
