<svg width="111" height="111" viewBox="0 0 111 111" fill="none" xmlns="http://www.w3.org/2000/svg">
<path fill-rule="evenodd" clip-rule="evenodd" d="M56.8259 8.04559L55.5879 0.529785L54.3499 8.04559C29.0999 8.69159 8.74976 29.0419 8.10376 54.2918L0.587891 55.5298L8.10376 56.7678C8.74976 82.0177 29.0999 102.368 54.3499 103.014L55.5879 110.53L56.8259 103.014C82.0759 102.368 102.426 82.0177 103.072 56.7678L110.588 55.5298L103.072 54.2918C102.426 29.0419 82.0759 8.69159 56.8259 8.04559ZM56.8259 8.04559C56.4146 8.0351 56.0018 8.02979 55.5879 8.02979C55.174 8.02979 54.7612 8.0351 54.3499 8.04559L47.8097 47.7516L8.10376 54.2918C8.09326 54.7032 8.08789 55.1158 8.08789 55.5298C8.08789 55.9437 8.09326 56.3564 8.10376 56.7678L47.8097 63.308L54.3499 103.014C54.7612 103.024 55.174 103.03 55.5879 103.03C56.0018 103.03 56.4146 103.024 56.8259 103.014L63.3661 63.308L103.072 56.7678C103.083 56.3564 103.088 55.9437 103.088 55.5298C103.088 55.1158 103.083 54.7032 103.072 54.2918L63.3661 47.7516L56.8259 8.04559Z" fill="white"/>
</svg>
