<svg width="111" height="141" viewBox="0 0 111 141" fill="none" xmlns="http://www.w3.org/2000/svg">
<path fill-rule="evenodd" clip-rule="evenodd" d="M55.4184 8.63065L53.8215 21.4046C50.6911 46.4471 31.4661 66.4478 6.57113 70.5689C31.4661 74.6899 50.6911 94.6906 53.8216 119.733L55.4184 132.507L57.0152 119.733C60.1457 94.6906 79.3707 74.6899 104.266 70.5689C79.3707 66.4478 60.1457 46.4471 57.0152 21.4046L55.4184 8.63065ZM51.837 21.1565L54.4261 0.444824L56.4107 0.444824L58.9998 21.1565C62.0223 45.335 80.5934 64.6427 104.636 68.603L110.581 69.5822L110.581 71.5556L104.636 72.5348C80.5934 76.495 62.0223 95.8027 58.9998 119.981L56.4107 140.693H54.4261L51.837 119.981C48.8145 95.8027 30.2434 76.495 6.20068 72.5348L0.25586 71.5556L0.255859 69.5822L6.20069 68.603C30.2434 64.6427 48.8145 45.335 51.837 21.1565Z" fill="white"/>
<path fill-rule="evenodd" clip-rule="evenodd" d="M28.3565 110.374C38.8158 103.821 51.8581 93.2211 64.9643 80.1148C78.0706 67.0086 88.6708 53.9663 95.2235 43.5071C98.5087 38.2635 100.716 33.7641 101.746 30.2881C102.261 28.5489 102.45 27.1681 102.391 26.1327C102.332 25.1136 102.045 24.5646 101.734 24.2534C101.423 23.9422 100.874 23.6554 99.8546 23.5967C98.8192 23.5371 97.4384 23.7262 95.6992 24.2415C92.2232 25.2712 87.7238 27.4786 82.4802 30.7637C72.021 37.3165 58.9787 47.9167 45.8724 61.0229C32.7662 74.1292 22.166 87.1715 15.6132 97.6307C12.3281 102.874 10.1207 107.374 9.09093 110.85C8.57568 112.589 8.38659 113.97 8.44621 115.005C8.50487 116.024 8.79171 116.573 9.10288 116.884C9.41405 117.196 9.96312 117.482 10.9822 117.541C12.0176 117.601 13.3984 117.412 15.1376 116.896C18.6136 115.867 23.113 113.659 28.3565 110.374ZM7.68867 118.299C13.7418 124.352 40.0181 107.889 66.3785 81.529C92.7389 55.1687 109.201 28.8923 103.148 22.8392C97.095 16.7861 70.8186 33.2483 44.4582 59.6087C18.0978 85.9691 1.63554 112.245 7.68867 118.299Z" fill="white"/>
<path fill-rule="evenodd" clip-rule="evenodd" d="M15.6132 43.5071C22.166 53.9664 32.7662 67.0086 45.8724 80.1149C58.9787 93.2212 72.021 103.821 82.4802 110.374C87.7238 113.659 92.2232 115.867 95.6992 116.896C97.4384 117.412 98.8192 117.601 99.8546 117.541C100.874 117.482 101.423 117.196 101.734 116.884C102.045 116.573 102.332 116.024 102.391 115.005C102.45 113.97 102.261 112.589 101.746 110.85C100.716 107.374 98.5087 102.874 95.2235 97.6308C88.6708 87.1716 78.0706 74.1293 64.9643 61.023C51.8581 47.9167 38.8158 37.3166 28.3566 30.7638C23.113 27.4787 18.6136 25.2713 15.1376 24.2415C13.3984 23.7262 12.0176 23.5372 10.9822 23.5968C9.96313 23.6554 9.41406 23.9423 9.10289 24.2535C8.79172 24.5646 8.50488 25.1137 8.44622 26.1327C8.3866 27.1682 8.57569 28.5489 9.09094 30.2882C10.1207 33.7641 12.3281 38.2635 15.6132 43.5071ZM7.68868 22.8392C1.63555 28.8924 18.0978 55.1687 44.4582 81.5291C70.8186 107.889 97.095 124.352 103.148 118.299C109.201 112.246 92.7389 85.9692 66.3785 59.6088C40.0182 33.2484 13.7418 16.7861 7.68868 22.8392Z" fill="white"/>
</svg>
