<svg width="111" height="141" viewBox="0 0 111 141" fill="none" xmlns="http://www.w3.org/2000/svg">
<path fill-rule="evenodd" clip-rule="evenodd" d="M52.2218 20.824L54.8109 0.112305H56.7954L59.3845 20.824C62.407 45.0025 80.9781 64.3102 105.021 68.2704L110.966 69.2496L110.966 71.223L105.021 72.2023C80.9781 76.1625 62.407 95.4702 59.3845 119.649L56.7954 140.36H54.8109L52.2218 119.649C49.1993 95.4702 30.6282 76.1625 6.58545 72.2022L0.640625 71.223V69.2496L6.58545 68.2704C30.6282 64.3102 49.1993 45.0025 52.2218 20.824ZM55.8032 8.29813L54.2063 21.0721C51.0758 46.1146 31.8509 66.1153 6.9559 70.2363C31.8509 74.3574 51.0758 94.3581 54.2063 119.401L55.8032 132.175L57.4 119.401C60.5305 94.3581 79.7554 74.3574 104.65 70.2363C79.7554 66.1153 60.5305 46.1146 57.4 21.0721L55.8032 8.29813Z" fill="white"/>
<path fill-rule="evenodd" clip-rule="evenodd" d="M74.803 29.6935C74.803 21.133 81.7426 14.1934 90.3031 14.1934C98.8636 14.1934 105.803 21.133 105.803 29.6935C105.803 38.254 98.8636 45.1936 90.3031 45.1936C81.7426 45.1936 74.803 38.254 74.803 29.6935ZM90.3031 16.1934C82.8472 16.1934 76.803 22.2376 76.803 29.6935C76.803 37.1494 82.8472 43.1936 90.3031 43.1936C97.759 43.1936 103.803 37.1494 103.803 29.6935C103.803 22.2376 97.759 16.1934 90.3031 16.1934Z" fill="white"/>
<path fill-rule="evenodd" clip-rule="evenodd" d="M19.3031 91.8561C10.7426 91.8561 3.80298 98.7957 3.80298 107.356C3.80298 115.917 10.7426 122.856 19.3031 122.856C27.8636 122.856 34.8032 115.917 34.8032 107.356C34.8032 98.7957 27.8636 91.8561 19.3031 91.8561ZM5.80298 107.356C5.80298 99.9003 11.8472 93.8561 19.3031 93.8561C26.759 93.8561 32.8032 99.9003 32.8032 107.356C32.8032 114.812 26.759 120.856 19.3031 120.856C11.8472 120.856 5.80298 114.812 5.80298 107.356Z" fill="white"/>
</svg>
