<svg width="113" height="113" viewBox="0 0 113 113" fill="none" xmlns="http://www.w3.org/2000/svg">
<path fill-rule="evenodd" clip-rule="evenodd" d="M56.7083 2.53024C56.7631 2.52994 56.8181 2.52979 56.873 2.52979C56.928 2.52979 56.9829 2.52994 57.0378 2.53024L62.0117 32.727C60.0868 34.3348 58.36 36.1718 56.873 38.196C55.3861 36.1718 53.6592 34.3348 51.7344 32.727L56.7083 2.53024ZM28.456 25.716C29.5781 25.5929 30.7182 25.5298 31.873 25.5298C39.43 25.5298 46.3553 28.2338 51.7344 32.727L51.3524 35.0457C46.2047 30.3754 39.3712 27.5298 31.873 27.5298C30.5993 27.5298 29.3448 27.6119 28.1144 27.7711C28.2041 27.0781 28.3182 26.3928 28.456 25.716ZM26.3615 26.0183C28.9619 11.5268 41.6332 0.529785 56.873 0.529785C72.1129 0.529785 84.7842 11.5268 87.3846 26.0183C86.6941 25.8944 85.9957 25.7933 85.2901 25.716C82.6084 12.5377 70.9897 2.60787 57.0378 2.53024L56.873 1.52979L56.7083 2.53024C42.7564 2.60787 31.1377 12.5377 28.456 25.716C27.7504 25.7933 27.052 25.8944 26.3615 26.0183ZM26.0592 28.1127C26.736 27.975 27.4214 27.8608 28.1144 27.7711C27.9552 29.0015 27.873 30.2561 27.873 31.5298C27.873 39.0279 30.7187 45.8614 35.389 51.0092L33.0702 51.3911C28.577 46.0121 25.873 39.0867 25.873 31.5298C25.873 30.3749 25.9362 29.2348 26.0592 28.1127ZM2.87351 56.365L33.0702 51.3911C34.6781 53.316 36.5151 55.0428 38.5392 56.5298C36.5151 58.0167 34.6781 59.7436 33.0702 61.6684L2.87351 56.6946C2.8732 56.6397 2.87305 56.5848 2.87305 56.5298C2.87305 56.4748 2.8732 56.4199 2.87351 56.365ZM26.0592 84.9469C25.9362 83.8248 25.873 82.6847 25.873 81.5298C25.873 73.9729 28.577 67.0475 33.0702 61.6684L35.389 62.0504C30.7187 67.1982 27.873 74.0317 27.873 81.5298C27.873 82.8035 27.9552 84.0581 28.1144 85.2884C27.4214 85.1987 26.736 85.0846 26.0592 84.9469ZM26.3615 87.0413C11.87 84.4409 0.873047 71.7696 0.873047 56.5298C0.873047 41.29 11.87 28.6186 26.3615 26.0183C26.2376 26.7087 26.1366 27.4072 26.0592 28.1127C12.881 30.7945 2.95114 42.4131 2.87351 56.365L1.87305 56.5298L2.87351 56.6946C2.95114 70.6464 12.881 82.2651 26.0592 84.9469C26.1366 85.6524 26.2376 86.3508 26.3615 87.0413ZM28.456 87.3436C28.3182 86.6668 28.2041 85.9815 28.1144 85.2884C29.3448 85.4477 30.5993 85.5298 31.873 85.5298C39.3712 85.5298 46.2047 82.6841 51.3524 78.0139L51.7344 80.3326C46.3553 84.8258 39.43 87.5298 31.873 87.5298C30.7182 87.5298 29.5781 87.4666 28.456 87.3436ZM56.7083 110.529C42.7564 110.452 31.1377 100.522 28.456 87.3436C27.7504 87.2662 27.052 87.1652 26.3615 87.0413C28.9619 101.533 41.6332 112.53 56.873 112.53C72.1129 112.53 84.7842 101.533 87.3846 87.0413C101.876 84.4409 112.873 71.7696 112.873 56.5298C112.873 41.29 101.876 28.6186 87.3846 26.0183C87.5085 26.7087 87.6095 27.4072 87.6869 28.1127C87.0101 27.975 86.3247 27.8608 85.6317 27.7711C85.542 27.0781 85.4279 26.3928 85.2901 25.716C84.168 25.5929 83.0279 25.5298 81.873 25.5298C74.3161 25.5298 67.3908 28.2338 62.0117 32.727L62.3936 35.0457C60.777 36.5124 59.3266 38.1591 58.074 39.9541C57.6935 39.3537 57.2928 38.7674 56.873 38.196C56.4533 38.7674 56.0526 39.3537 55.6721 39.9541C54.4195 38.1591 52.9691 36.5124 51.3524 35.0457L49.0949 48.7516L35.389 51.0092C36.8557 52.6259 38.5023 54.0763 40.2973 55.3288C39.697 55.7094 39.1107 56.11 38.5392 56.5298C39.1107 56.9496 39.697 57.3502 40.2973 57.7308C38.5023 58.9833 36.8557 60.4337 35.389 62.0504L49.0949 64.308L51.3524 78.0139C52.9691 76.5471 54.4195 74.9005 55.6721 73.1055C56.0526 73.7058 56.4533 74.2922 56.873 74.8636C55.3861 76.8878 53.6592 78.7247 51.7344 80.3326L56.7083 110.529ZM57.0378 110.529C56.9829 110.53 56.928 110.53 56.873 110.53C56.8181 110.53 56.7631 110.53 56.7083 110.529L56.873 111.53L57.0378 110.529ZM62.0117 80.3326L57.0378 110.529C70.9897 110.452 82.6084 100.522 85.2901 87.3436C85.9957 87.2662 86.6941 87.1652 87.3846 87.0413C87.5085 86.3508 87.6095 85.6524 87.6869 84.9469C100.865 82.2651 110.795 70.6464 110.873 56.6946L111.873 56.5298L110.873 56.365C110.795 42.4131 100.865 30.7945 87.6869 28.1127C87.8099 29.2348 87.873 30.3749 87.873 31.5298C87.873 39.0867 85.1691 46.0121 80.6759 51.3911L78.3571 51.0092C83.0274 45.8614 85.873 39.0279 85.873 31.5298C85.873 30.2561 85.7909 29.0015 85.6317 27.7711C84.4013 27.6119 83.1468 27.5298 81.873 27.5298C74.3749 27.5298 67.5414 30.3754 62.3936 35.0457L64.6512 48.7516L78.3571 51.0092C76.8904 52.6259 75.2438 54.0763 73.4488 55.3288C70.1339 53.2273 66.3929 51.7375 62.3846 51.0183C61.6653 47.0099 60.1755 43.2689 58.074 39.9541C57.6507 40.5608 57.25 41.1844 56.873 41.8238C56.4961 41.1844 56.0954 40.5608 55.6721 39.9541C53.5706 43.2689 52.0808 47.0099 51.3615 51.0183C47.3532 51.7375 43.6122 53.2273 40.2973 55.3288C40.904 55.7521 41.5277 56.1529 42.167 56.5298C41.5277 56.9067 40.904 57.3074 40.2973 57.7308C43.6122 59.8323 47.3532 61.322 51.3615 62.0413C52.0808 66.0496 53.5706 69.7906 55.6721 73.1055C56.0954 72.4988 56.4961 71.8752 56.873 71.2358C57.25 71.8752 57.6507 72.4988 58.074 73.1055C57.6935 73.7058 57.2928 74.2922 56.873 74.8636C58.36 76.8878 60.0868 78.7247 62.0117 80.3326ZM62.3936 78.0139L62.0117 80.3326C67.3908 84.8258 74.3161 87.5298 81.873 87.5298C83.0279 87.5298 84.168 87.4666 85.2901 87.3436C85.4279 86.6668 85.542 85.9815 85.6317 85.2884C86.3247 85.1987 87.0101 85.0846 87.6869 84.9469C87.8099 83.8248 87.873 82.6847 87.873 81.5298C87.873 73.9729 85.1691 67.0475 80.6759 61.6684L110.873 56.6946C110.873 56.6397 110.873 56.5848 110.873 56.5298C110.873 56.4748 110.873 56.4199 110.873 56.365L80.6759 51.3911C79.068 53.316 77.231 55.0428 75.2069 56.5298C74.6354 56.11 74.0491 55.7094 73.4488 55.3288C72.8421 55.7521 72.2184 56.1529 71.5791 56.5298C68.8669 54.9309 65.8717 53.7608 62.6869 53.1127C62.6095 52.4072 62.5085 51.7087 62.3846 51.0183C61.6941 50.8944 60.9957 50.7933 60.2901 50.716C59.642 47.5311 58.4719 44.536 56.873 41.8238C55.2742 44.536 54.1041 47.5311 53.456 50.716C52.7504 50.7933 52.052 50.8944 51.3615 51.0183C51.2376 51.7087 51.1366 52.4072 51.0592 53.1127C47.8744 53.7608 44.8792 54.9309 42.167 56.5298C44.8792 58.1287 47.8744 59.2988 51.0592 59.9469C51.1366 60.6524 51.2376 61.3508 51.3615 62.0413C52.052 62.1652 52.7504 62.2662 53.456 62.3436C54.1041 65.5285 55.2742 68.5236 56.873 71.2358C58.4719 68.5236 59.642 65.5285 60.2901 62.3436C60.9957 62.2662 61.6941 62.1652 62.3846 62.0413C61.6653 66.0496 60.1755 69.7906 58.074 73.1055C59.3266 74.9005 60.777 76.5471 62.3936 78.0139ZM78.3571 62.0504L64.6512 64.308L62.3936 78.0139C67.5414 82.6841 74.3749 85.5298 81.873 85.5298C83.1468 85.5298 84.4013 85.4477 85.6317 85.2884C85.7909 84.0581 85.873 82.8035 85.873 81.5298C85.873 74.0317 83.0274 67.1982 78.3571 62.0504ZM73.4488 57.7308C70.1339 59.8323 66.3929 61.322 62.3846 62.0413C62.5085 61.3508 62.6095 60.6524 62.6869 59.9469C65.8717 59.2988 68.8669 58.1287 71.5791 56.5298C72.2184 56.9067 72.8421 57.3074 73.4488 57.7308ZM60.6317 60.2884C60.542 60.9815 60.4279 61.6668 60.2901 62.3436C59.168 62.4666 58.0279 62.5298 56.873 62.5298C55.7182 62.5298 54.5781 62.4666 53.456 62.3436C53.3182 61.6668 53.2041 60.9815 53.1144 60.2884C54.3448 60.4477 55.5993 60.5298 56.873 60.5298C58.1468 60.5298 59.4013 60.4477 60.6317 60.2884ZM53.1144 52.7711C53.2041 52.0781 53.3182 51.3928 53.456 50.716C54.5781 50.5929 55.7182 50.5298 56.873 50.5298C58.0279 50.5298 59.168 50.5929 60.2901 50.716C60.4279 51.3928 60.542 52.0781 60.6317 52.7711C59.4013 52.6119 58.1468 52.5298 56.873 52.5298C55.5993 52.5298 54.3448 52.6119 53.1144 52.7711ZM53.1144 52.7711C52.9552 54.0015 52.873 55.2561 52.873 56.5298C52.873 57.8035 52.9552 59.0581 53.1144 60.2884C52.4214 60.1988 51.736 60.0846 51.0592 59.9469C50.9362 58.8248 50.873 57.6847 50.873 56.5298C50.873 55.3749 50.9362 54.2348 51.0592 53.1127C51.736 52.975 52.4214 52.8608 53.1144 52.7711ZM60.6317 60.2884C60.7909 59.0581 60.873 57.8035 60.873 56.5298C60.873 55.2561 60.7909 54.0015 60.6317 52.7711C61.3247 52.8608 62.0101 52.975 62.6869 53.1127C62.8099 54.2348 62.873 55.3749 62.873 56.5298C62.873 57.6847 62.8099 58.8248 62.6869 59.9469C62.0101 60.0846 61.3247 60.1987 60.6317 60.2884ZM73.4488 57.7308C75.2438 58.9833 76.8904 60.4337 78.3571 62.0504L80.6759 61.6684C79.068 59.7436 77.231 58.0167 75.2069 56.5298C74.6354 56.9496 74.0491 57.3502 73.4488 57.7308Z" fill="white"/>
</svg>
