<svg width="108" height="137" viewBox="0 0 108 137" fill="none" xmlns="http://www.w3.org/2000/svg">
<path fill-rule="evenodd" clip-rule="evenodd" d="M38.2282 8.40835L39.9919 21.1603C43.4496 46.1598 30.0563 70.4548 7.07616 80.8787C32.1895 78.416 55.9359 92.7594 65.4412 116.138L70.2898 128.064L68.5261 115.312C65.0684 90.3124 78.4617 66.0174 101.442 55.5935C76.3285 58.0562 52.5821 43.7127 43.0768 20.3337L38.2282 8.40835ZM38.0108 21.4343L35.1511 0.758268L37.068 0.244629L44.9295 19.5805C54.1068 42.1528 77.0424 55.9961 101.291 53.5987L107.287 53.0059L107.797 54.912L102.308 57.3965C80.1099 67.4445 67.1688 90.9009 70.5072 115.038L73.3669 135.714L71.45 136.228L63.5885 116.892C54.4111 94.3193 31.4756 80.476 7.22715 82.8735L1.23146 83.4663L0.720703 81.5601L6.20953 79.0756C28.408 69.0276 41.3491 45.5713 38.0108 21.4343ZM53.4845 104.7C73.6231 104.7 89.9486 88.3746 89.9486 68.2361C89.9486 48.0975 73.6231 31.772 53.4845 31.772C33.346 31.772 17.0204 48.0975 17.0204 68.2361C17.0204 88.3746 33.346 104.7 53.4845 104.7ZM53.4845 106.7C74.7277 106.7 91.9486 89.4792 91.9486 68.2361C91.9486 46.9929 74.7277 29.772 53.4845 29.772C32.2414 29.772 15.0204 46.9929 15.0204 68.2361C15.0204 89.4792 32.2414 106.7 53.4845 106.7Z" fill="white"/>
</svg>
