<svg width="111" height="222" viewBox="0 0 111 222" fill="none" xmlns="http://www.w3.org/2000/svg">
<path fill-rule="evenodd" clip-rule="evenodd" d="M53.7002 53.999L55.3126 21.0632L56.9249 53.999L89.8607 55.6115L56.8942 57.2252L55.8503 123.693C55.6714 123.696 55.4922 123.698 55.3126 123.698C55.1331 123.698 54.9539 123.696 54.7749 123.693L53.731 57.2252L20.7644 55.6115L53.7002 53.999ZM52.7729 123.588C53.4362 123.645 54.1036 123.68 54.7749 123.693L55.3126 157.932L55.8503 123.693C56.5216 123.68 57.189 123.645 57.8522 123.588L56.3125 221.627H54.3127L52.7729 123.588ZM14.7097 57.3174L51.7606 59.1311L52.7729 123.588C31.3121 121.725 14.3126 96.4102 14.3126 65.4557C14.3126 62.6938 14.448 59.9768 14.7097 57.3174ZM15.1217 53.8853C18.8149 27.8571 34.7242 8.11328 53.9867 7.2439L51.7913 52.0901L15.1217 53.8853ZM56.6384 7.2439C56.1982 7.224 55.7562 7.21399 55.3126 7.21399C54.8689 7.21399 54.427 7.224 53.9867 7.2439L54.3137 0.5625H56.3114L56.6384 7.2439ZM95.5035 53.8853L58.8339 52.0901L56.6384 7.2439C75.901 8.11316 91.8103 27.8571 95.5035 53.8853ZM95.5035 53.8853L110.361 54.6125V56.6102L95.9155 57.3174C95.8018 56.1621 95.6642 55.0178 95.5035 53.8853ZM15.1217 53.8853C14.9611 55.0178 14.8235 56.1621 14.7097 57.3174L0.263672 56.6102V54.6125L15.1217 53.8853ZM95.9155 57.3174C96.1772 59.9768 96.3126 62.6938 96.3126 65.4557C96.3126 96.4102 79.313 121.725 57.8522 123.588L58.8645 59.1311L95.9155 57.3174Z" fill="white"/>
</svg>
