<svg width="173" height="173" viewBox="0 0 173 173" fill="none" xmlns="http://www.w3.org/2000/svg">
<path fill-rule="evenodd" clip-rule="evenodd" d="M59.7634 59.2077C47.095 60.5822 35.7352 62.8946 26.4666 65.8977C18.7191 68.408 12.3769 71.4185 7.95051 74.8093C3.53877 78.1889 0.878906 82.0705 0.878906 86.3232C0.878906 90.5759 3.53877 94.4576 7.95051 97.8371C12.3769 101.228 18.7191 104.238 26.4666 106.749C35.7352 109.752 47.095 112.064 59.7634 113.439C61.1379 126.107 63.4503 137.467 66.4534 146.736C68.9637 154.483 71.9742 160.825 75.365 165.252C78.7446 169.663 82.6262 172.323 86.8789 172.323C91.1316 172.323 95.0132 169.663 98.3928 165.252C101.784 160.825 104.794 154.483 107.304 146.736C110.307 137.467 112.62 126.107 113.994 113.439C126.663 112.064 138.023 109.752 147.291 106.749C155.039 104.238 161.381 101.228 165.807 97.8371C170.219 94.4576 172.879 90.5759 172.879 86.3232C172.879 82.0705 170.219 78.1889 165.807 74.8093C161.381 71.4185 155.039 68.408 147.291 65.8977C138.023 62.8946 126.663 60.5822 113.994 59.2077C112.62 46.5394 110.307 35.1796 107.304 25.9109C104.794 18.1634 101.784 11.8212 98.3928 7.39485C95.0132 2.98311 91.1316 0.323242 86.8789 0.323242C82.6262 0.323242 78.7446 2.98311 75.365 7.39485C71.9742 11.8212 68.9637 18.1634 66.4534 25.9109C63.4503 35.1796 61.1379 46.5394 59.7634 59.2077ZM61.5834 61.0278C60.9193 67.5836 60.5061 74.4864 60.3797 81.6287L79.1007 78.5451L82.1843 59.824C75.0421 59.9505 68.1392 60.3636 61.5834 61.0278ZM59.5518 61.2428C58.8948 67.8471 58.4909 74.7883 58.3738 81.9591L31.8789 86.3232L58.3738 90.6874C58.4909 97.8582 58.8948 104.799 59.5518 111.404C47.1731 110.037 36.1006 107.768 27.0831 104.846C19.4486 102.372 13.3428 99.4485 9.16675 96.2494C4.97601 93.0392 2.8789 89.6757 2.87891 86.3232C2.87891 82.9708 4.97601 79.6073 9.16675 76.397C13.3428 73.198 19.4486 70.274 27.0831 67.8004C36.1006 64.8786 47.1731 62.6099 59.5518 61.2428ZM61.7985 58.9961C68.4027 58.3392 75.3439 57.9352 82.5148 57.8181L86.8789 31.3232L91.243 57.8181C98.4138 57.9352 105.355 58.3392 111.959 58.9961C110.592 46.6175 108.323 35.5449 105.402 26.5274C102.928 18.8929 100.004 12.7872 96.8051 8.61108C93.5948 4.42035 90.2313 2.32324 86.8789 2.32324C83.5265 2.32324 80.1629 4.42035 76.9527 8.61108C73.7536 12.7872 70.8297 18.8929 68.356 26.5274C65.4343 35.5449 63.1656 46.6175 61.7985 58.9961ZM112.174 61.0278C105.619 60.3636 98.7157 59.9505 91.5734 59.824L94.6571 78.5451L113.378 81.6287C113.252 74.4864 112.838 67.5836 112.174 61.0278ZM114.206 61.2428C114.863 67.8471 115.267 74.7883 115.384 81.9591L141.879 86.3232L115.384 90.6874C115.267 97.8582 114.863 104.799 114.206 111.404C126.585 110.037 137.657 107.768 146.675 104.846C154.309 102.372 160.415 99.4485 164.591 96.2494C168.782 93.0392 170.879 89.6757 170.879 86.3232C170.879 82.9708 168.782 79.6073 164.591 76.397C160.415 73.198 154.309 70.274 146.675 67.8004C137.657 64.8786 126.585 62.6099 114.206 61.2428ZM112.174 111.619C112.838 105.063 113.252 98.1601 113.378 91.0178L94.6571 94.1014L91.5734 112.822C98.7157 112.696 105.619 112.283 112.174 111.619ZM82.5147 114.828L86.8789 141.323L91.243 114.828C98.4138 114.711 105.355 114.307 111.959 113.65C110.592 126.029 108.323 137.102 105.402 146.119C102.928 153.754 100.004 159.859 96.8051 164.035C93.5948 168.226 90.2313 170.323 86.8789 170.323C83.5265 170.323 80.1629 168.226 76.9527 164.035C73.7536 159.859 70.8297 153.754 68.356 146.119C65.4343 137.102 63.1655 126.029 61.7985 113.65C68.4027 114.307 75.3439 114.711 82.5147 114.828ZM82.1843 112.822L79.1007 94.1014L60.3797 91.0178C60.5061 98.1601 60.9193 105.063 61.5834 111.619C68.1392 112.283 75.042 112.696 82.1843 112.822Z" fill="white"/>
</svg>
