<svg width="111" height="111" viewBox="0 0 111 111" fill="none" xmlns="http://www.w3.org/2000/svg">
<path d="M55.168 0.529785L62.9461 47.7516L110.168 55.5298L62.9461 63.308L55.168 110.53L47.3898 63.308L0.167969 55.5298L47.3898 47.7516L55.168 0.529785Z" fill="white"/>
<path fill-rule="evenodd" clip-rule="evenodd" d="M55.168 108.53C84.4391 108.53 108.168 84.8009 108.168 55.5298C108.168 26.2587 84.4391 2.52979 55.168 2.52979C25.8969 2.52979 2.16797 26.2587 2.16797 55.5298C2.16797 84.8009 25.8969 108.53 55.168 108.53ZM55.168 110.53C85.5436 110.53 110.168 85.9054 110.168 55.5298C110.168 25.1541 85.5436 0.529785 55.168 0.529785C24.7923 0.529785 0.167969 25.1541 0.167969 55.5298C0.167969 85.9054 24.7923 110.53 55.168 110.53Z" fill="white"/>
</svg>
