<svg width="113" height="113" viewBox="0 0 113 113" fill="none" xmlns="http://www.w3.org/2000/svg">
<path fill-rule="evenodd" clip-rule="evenodd" d="M25.7385 26.0183C11.247 28.6186 0.25 41.29 0.25 56.5298C0.25 71.7696 11.247 84.4409 25.7385 87.0413C28.3388 101.533 41.0102 112.53 56.25 112.53C71.4898 112.53 84.1612 101.533 86.7615 87.0413C101.253 84.4409 112.25 71.7696 112.25 56.5298C112.25 41.29 101.253 28.6186 86.7615 26.0183C84.1612 11.5268 71.4898 0.529785 56.25 0.529785C41.0102 0.529785 28.3388 11.5268 25.7385 26.0183ZM27.4913 27.7711C27.3321 29.0015 27.25 30.2561 27.25 31.5298C27.25 39.0279 30.0957 45.8614 34.7659 51.0092L48.4718 48.7516L50.7294 35.0457C45.5816 30.3754 38.7481 27.5298 31.25 27.5298C29.9763 27.5298 28.7217 27.6119 27.4913 27.7711ZM25.4362 28.1127C25.3132 29.2348 25.25 30.3749 25.25 31.5298C25.25 39.0867 27.954 46.0121 32.4472 51.3911L2.25046 56.365C2.32809 42.4131 12.2579 30.7945 25.4362 28.1127ZM27.8329 25.716C28.955 25.5929 30.0951 25.5298 31.25 25.5298C38.8069 25.5298 45.7323 28.2338 51.1113 32.727L56.0852 2.53024C42.1334 2.60787 30.5147 12.5377 27.8329 25.716ZM50.7294 78.0139L48.4718 64.308L34.7659 62.0504C30.0957 67.1982 27.25 74.0317 27.25 81.5298C27.25 82.8035 27.3321 84.0581 27.4913 85.2884C28.7217 85.4477 29.9763 85.5298 31.25 85.5298C38.7481 85.5298 45.5816 82.6841 50.7294 78.0139ZM27.8329 87.3436C28.955 87.4666 30.0951 87.5298 31.25 87.5298C38.8069 87.5298 45.7323 84.8258 51.1113 80.3326L56.0852 110.529C42.1334 110.452 30.5147 100.522 27.8329 87.3436ZM25.4362 84.9469C25.3132 83.8248 25.25 82.6847 25.25 81.5298C25.25 73.9729 27.954 67.0475 32.4472 61.6684L2.25046 56.6946C2.32809 70.6464 12.2579 82.2651 25.4362 84.9469ZM110.25 56.6946C110.172 70.6464 100.242 82.2651 87.0638 84.9469C87.1869 83.8248 87.25 82.6847 87.25 81.5298C87.25 73.9729 84.546 67.0475 80.0528 61.6684L110.25 56.6946ZM85.25 81.5298C85.25 74.0317 82.4043 67.1982 77.7341 62.0504L64.0282 64.308L61.7706 78.0139C66.9184 82.6841 73.7519 85.5298 81.25 85.5298C82.5237 85.5298 83.7783 85.4477 85.0087 85.2884C85.1679 84.0581 85.25 82.8035 85.25 81.5298ZM61.3887 80.3326L56.4148 110.529C70.3666 110.452 81.9853 100.522 84.6671 87.3436C83.545 87.4666 82.4049 87.5298 81.25 87.5298C73.6931 87.5298 66.7677 84.8258 61.3887 80.3326ZM87.0638 28.1127C100.242 30.7945 110.172 42.4131 110.25 56.365L80.0528 51.3911C84.546 46.0121 87.25 39.0867 87.25 31.5298C87.25 30.3749 87.1869 29.2348 87.0638 28.1127ZM85.0087 27.7711C85.1679 29.0015 85.25 30.2561 85.25 31.5298C85.25 39.0279 82.4043 45.8614 77.7341 51.0092L64.0282 48.7516L61.7706 35.0457C66.9184 30.3754 73.7519 27.5298 81.25 27.5298C82.5237 27.5298 83.7783 27.6119 85.0087 27.7711ZM84.6671 25.716C81.9853 12.5377 70.3666 2.60787 56.4148 2.53024L61.3887 32.727C66.7677 28.2338 73.6931 25.5298 81.25 25.5298C82.4049 25.5298 83.545 25.5929 84.6671 25.716Z" fill="white"/>
</svg>
