<svg width="111" height="222" viewBox="0 0 111 222" fill="none" xmlns="http://www.w3.org/2000/svg">
<path fill-rule="evenodd" clip-rule="evenodd" d="M55.1436 21.0633L53.5313 53.9991L20.5955 55.6114L53.562 57.2252L55.1436 157.931L56.7253 57.2252L89.6917 55.6114L56.756 53.9991L55.1436 21.0633ZM51.6224 52.0901L54.1448 0.5625H56.1424L58.6649 52.0901L110.193 54.6126V56.6102L58.6956 59.1312L56.1435 221.627H54.1437L51.5917 59.1312L0.0947266 56.6102V54.6126L51.6224 52.0901Z" fill="white"/>
<path fill-rule="evenodd" clip-rule="evenodd" d="M71.6437 82.6113C78.133 82.6113 83.3937 77.3507 83.3937 70.8613C83.3937 64.372 78.133 59.1113 71.6437 59.1113C65.1543 59.1113 59.8937 64.372 59.8937 70.8613C59.8937 77.3507 65.1543 82.6113 71.6437 82.6113ZM71.6437 84.6113C79.2376 84.6113 85.3937 78.4552 85.3937 70.8613C85.3937 63.2674 79.2376 57.1113 71.6437 57.1113C64.0498 57.1113 57.8937 63.2674 57.8937 70.8613C57.8937 78.4552 64.0498 84.6113 71.6437 84.6113Z" fill="white"/>
<path fill-rule="evenodd" clip-rule="evenodd" d="M40.3937 82.6113C46.883 82.6113 52.1437 77.3507 52.1437 70.8613C52.1437 64.372 46.883 59.1113 40.3937 59.1113C33.9043 59.1113 28.6437 64.372 28.6437 70.8613C28.6437 77.3507 33.9043 82.6113 40.3937 82.6113ZM40.3937 84.6113C47.9876 84.6113 54.1437 78.4552 54.1437 70.8613C54.1437 63.2674 47.9876 57.1113 40.3937 57.1113C32.7998 57.1113 26.6437 63.2674 26.6437 70.8613C26.6437 78.4552 32.7998 84.6113 40.3937 84.6113Z" fill="white"/>
<path fill-rule="evenodd" clip-rule="evenodd" d="M40.3937 52.1113C46.883 52.1113 52.1437 46.8507 52.1437 40.3613C52.1437 33.872 46.883 28.6113 40.3937 28.6113C33.9043 28.6113 28.6437 33.872 28.6437 40.3613C28.6437 46.8507 33.9043 52.1113 40.3937 52.1113ZM40.3937 54.1113C47.9876 54.1113 54.1437 47.9552 54.1437 40.3613C54.1437 32.7674 47.9876 26.6113 40.3937 26.6113C32.7998 26.6113 26.6437 32.7674 26.6437 40.3613C26.6437 47.9552 32.7998 54.1113 40.3937 54.1113Z" fill="white"/>
<path fill-rule="evenodd" clip-rule="evenodd" d="M22.7687 52.1113C25.4611 52.1113 27.6437 49.9287 27.6437 47.2363C27.6437 44.5439 25.4611 42.3613 22.7687 42.3613C20.0763 42.3613 17.8937 44.5439 17.8937 47.2363C17.8937 49.9287 20.0763 52.1113 22.7687 52.1113ZM22.7687 54.1113C26.5656 54.1113 29.6437 51.0333 29.6437 47.2363C29.6437 43.4394 26.5656 40.3613 22.7687 40.3613C18.9717 40.3613 15.8937 43.4394 15.8937 47.2363C15.8937 51.0333 18.9717 54.1113 22.7687 54.1113Z" fill="white"/>
<path fill-rule="evenodd" clip-rule="evenodd" d="M22.7687 68.8613C25.4611 68.8613 27.6437 66.6787 27.6437 63.9863C27.6437 61.2939 25.4611 59.1113 22.7687 59.1113C20.0763 59.1113 17.8937 61.2939 17.8937 63.9863C17.8937 66.6787 20.0763 68.8613 22.7687 68.8613ZM22.7687 70.8613C26.5656 70.8613 29.6437 67.7833 29.6437 63.9863C29.6437 60.1894 26.5656 57.1113 22.7687 57.1113C18.9717 57.1113 15.8937 60.1894 15.8937 63.9863C15.8937 67.7833 18.9717 70.8613 22.7687 70.8613Z" fill="white"/>
<path fill-rule="evenodd" clip-rule="evenodd" d="M89.0187 52.1113C91.7111 52.1113 93.8937 49.9287 93.8937 47.2363C93.8937 44.5439 91.7111 42.3613 89.0187 42.3613C86.3263 42.3613 84.1437 44.5439 84.1437 47.2363C84.1437 49.9287 86.3263 52.1113 89.0187 52.1113ZM89.0187 54.1113C92.8156 54.1113 95.8937 51.0333 95.8937 47.2363C95.8937 43.4394 92.8156 40.3613 89.0187 40.3613C85.2217 40.3613 82.1437 43.4394 82.1437 47.2363C82.1437 51.0333 85.2217 54.1113 89.0187 54.1113Z" fill="white"/>
<path fill-rule="evenodd" clip-rule="evenodd" d="M89.0187 68.8613C91.7111 68.8613 93.8937 66.6787 93.8937 63.9863C93.8937 61.2939 91.7111 59.1113 89.0187 59.1113C86.3263 59.1113 84.1437 61.2939 84.1437 63.9863C84.1437 66.6787 86.3263 68.8613 89.0187 68.8613ZM89.0187 70.8613C92.8156 70.8613 95.8937 67.7833 95.8937 63.9863C95.8937 60.1894 92.8156 57.1113 89.0187 57.1113C85.2217 57.1113 82.1437 60.1894 82.1437 63.9863C82.1437 67.7833 85.2217 70.8613 89.0187 70.8613Z" fill="white"/>
<path fill-rule="evenodd" clip-rule="evenodd" d="M71.6437 52.1113C78.133 52.1113 83.3937 46.8507 83.3937 40.3613C83.3937 33.872 78.133 28.6113 71.6437 28.6113C65.1543 28.6113 59.8937 33.872 59.8937 40.3613C59.8937 46.8507 65.1543 52.1113 71.6437 52.1113ZM71.6437 54.1113C79.2376 54.1113 85.3937 47.9552 85.3937 40.3613C85.3937 32.7674 79.2376 26.6113 71.6437 26.6113C64.0498 26.6113 57.8937 32.7674 57.8937 40.3613C57.8937 47.9552 64.0498 54.1113 71.6437 54.1113Z" fill="white"/>
</svg>
