<svg width="62" height="61" viewBox="0 0 62 61" fill="none" xmlns="http://www.w3.org/2000/svg">
<path fill-rule="evenodd" clip-rule="evenodd" d="M25.1846 5.35883C26.2881 -1.34097 35.9214 -1.34095 37.025 5.35883L39.7531 21.9213L56.3156 24.6494C63.0154 25.753 63.0154 35.3863 56.3156 36.4898L39.7531 39.2179L37.025 55.7804C35.9214 62.4802 26.2881 62.4802 25.1846 55.7804L22.4565 39.2179L5.89398 36.4898C-0.805818 35.3863 -0.805798 25.753 5.89399 24.6494L22.4565 21.9213L25.1846 5.35883ZM35.0516 5.68389C34.3159 1.21735 27.8937 1.21736 27.158 5.68388L24.1968 23.6616L6.21904 26.6228C1.75251 27.3585 1.75251 33.7807 6.21903 34.5164L24.1968 37.4776L27.158 55.4554C27.8937 59.9219 34.3159 59.9219 35.0516 55.4554L38.0128 37.4776L55.9905 34.5164C60.4571 33.7807 60.457 27.3585 55.9905 26.6228L38.0128 23.6616L35.0516 5.68389Z" fill="white"/>
</svg>
