<svg width="151" height="149" viewBox="0 0 151 149" fill="none" xmlns="http://www.w3.org/2000/svg">
<path fill-rule="evenodd" clip-rule="evenodd" d="M29.9075 74.5688C53.2084 79.0223 71.5412 97.355 75.9946 120.656C80.4481 97.355 98.7808 79.0223 122.082 74.5688C98.7808 70.1154 80.4481 51.7826 75.9946 28.4817C71.5412 51.7826 53.2084 70.1154 29.9075 74.5688ZM20.9587 73.5695C50.3542 72.5144 73.9402 48.9284 74.9953 19.533H76.994C78.049 48.9284 101.635 72.5144 131.03 73.5695V75.5682C101.635 76.6232 78.049 100.209 76.994 129.605H74.9953C73.9402 100.209 50.3542 76.6232 20.9587 75.5682V73.5695Z" fill="white"/>
<path fill-rule="evenodd" clip-rule="evenodd" d="M76.6843 19.533L75.9814 0.568848L75.2786 19.533H74.9691L74.2498 39.5759C71.5433 56.7467 57.9487 70.2649 40.742 72.8585L20.9326 73.5695V73.8396L0.981445 74.5688L20.9326 75.2981V75.5682L40.7417 76.2792C57.9486 78.8727 71.5433 92.3909 74.2498 109.562L74.9691 129.605H75.2786L75.9814 148.569L76.6843 129.605H76.9678L77.6794 109.78C80.3052 92.5027 93.9459 78.8794 111.229 76.2779L131.004 75.5682V75.299L150.981 74.5688L131.004 73.8387V73.5695L111.229 72.8597C93.9457 70.2582 80.3052 56.6349 77.6794 39.358L76.9678 19.533H76.6843ZM76.6843 19.533H75.2786L74.7132 34.7897C74.653 36.4118 74.4967 38.0091 74.2498 39.5759L73.0969 71.6972L40.742 72.8585C39.254 73.0828 37.7389 73.2254 36.2016 73.2816L20.9326 73.8396V75.2981L36.2016 75.8561C37.7388 75.9123 39.2538 76.0549 40.7417 76.2792L73.0969 77.4405L74.2498 109.562C74.4967 111.129 74.653 112.726 74.7132 114.348L75.2786 129.605H76.6843L77.2497 114.348C77.3071 112.801 77.4519 111.277 77.6794 109.78L78.8401 77.4405L111.229 76.2779C112.715 76.0544 114.227 75.9122 115.761 75.8561L131.004 75.299V73.8387L115.761 73.2816C114.227 73.2255 112.714 73.0833 111.229 72.8597L78.8401 71.6972L77.6794 39.358C77.4519 37.861 77.3071 36.3367 77.2497 34.7897L76.6843 19.533ZM75.0288 73.6292L75.9685 47.4483L76.9082 73.6292L103.089 74.5688L76.9082 75.5085L75.9685 101.689L75.0288 75.5085L48.8479 74.5688L75.0288 73.6292Z" fill="white"/>
</svg>
