<svg width="151" height="149" viewBox="0 0 151 149" fill="none" xmlns="http://www.w3.org/2000/svg">
<path fill-rule="evenodd" clip-rule="evenodd" d="M75.9633 27.4817L75.6943 34.7393C74.899 56.1989 57.68 73.409 36.22 74.1934L28.3415 74.4814L36.22 74.7693C57.68 75.5537 74.899 92.7639 75.6943 114.223L75.9633 121.481L76.2323 114.223C77.0276 92.7639 94.2466 75.5537 115.707 74.7693L123.585 74.4814L115.707 74.1934C94.2466 73.409 77.0276 56.1989 76.2323 34.7393L75.9633 27.4817ZM74.964 0.444336L76.9626 0.444336L78.2309 34.6652C78.9874 55.078 95.3664 71.4486 115.78 72.1947L151 73.482V75.4807L115.78 76.768C95.3665 77.5141 78.9874 93.8847 78.2309 114.298L76.9626 148.518H74.964L73.6957 114.298C72.9391 93.8847 56.5601 77.5141 36.1469 76.768L0.926758 75.4807L0.926758 73.482L36.1469 72.1947C56.5601 71.4486 72.9391 55.078 73.6957 34.6652L74.964 0.444336Z" fill="white"/>
</svg>
