<svg width="152" height="224" viewBox="0 0 152 224" fill="none" xmlns="http://www.w3.org/2000/svg">
<path fill-rule="evenodd" clip-rule="evenodd" d="M43.6186 103.456C35.1599 110.482 27.602 113.391 22.7597 110.595C14.6854 105.933 16.5725 86.8023 26.249 64.1705C25.6962 62.6781 25.1636 61.2027 24.6515 59.7453L0.152344 58.546V56.5484L23.1743 55.4214C13.9704 27.6638 12.6871 7.1999 21.55 2.08294C28.3017 -1.81519 39.8226 3.83934 53.5212 16.4142L54.2024 2.49833H56.2L56.8764 16.3146C68.4 4.08563 79.3294 -1.96685 85.6428 1.67819C93.771 6.37099 91.8044 25.7268 81.9588 48.556C83.6419 50.7801 85.3311 53.0663 87.023 55.4114L110.25 56.5484V58.546L89.9611 59.5392C97.2489 69.9162 104.551 81.3451 111.6 93.5535C145.908 152.977 161.216 208.368 145.791 217.274C130.656 226.012 91.5577 186.751 57.6841 129.139L56.2011 223.563H54.2014L52.5787 120.242C49.4113 114.585 46.4212 108.978 43.6186 103.456ZM44.2531 100.271C46.8221 97.983 49.4687 95.3211 52.1403 92.33L51.6493 61.067L30.2978 60.0218C29.6368 61.4347 29.005 62.8366 28.403 64.2249C32.5892 75.4329 37.9138 87.602 44.2531 100.271ZM42.6933 101.623C38.6736 105.007 34.9494 107.367 31.7237 108.616C28.1931 109.984 25.5766 109.912 23.7597 108.863C21.9427 107.814 20.5722 105.584 19.9912 101.843C19.4138 98.124 19.6795 93.2377 20.8227 87.4651C22.0357 81.3401 24.2107 74.3446 27.274 66.897C31.4201 77.765 36.5967 89.4737 42.6933 101.623ZM52.512 116C49.9425 111.325 47.4975 106.691 45.183 102.119C47.4725 100.107 49.8185 97.8081 52.1862 95.252L52.512 116ZM54.636 123.88L55.2012 159.867L55.7364 125.795C55.3674 125.156 55.0006 124.518 54.636 123.88ZM55.7979 121.879C55.3858 121.153 54.9767 120.429 54.5705 119.705L54.1522 93.0759C54.8638 92.269 55.5765 91.4397 56.2893 90.5891L55.7979 121.879ZM57.7448 125.274C74.7642 154.676 93.2119 179.445 109.272 195.759C117.356 203.97 124.754 209.956 130.991 213.337C137.345 216.782 141.893 217.215 144.791 215.542C147.688 213.869 149.587 209.713 149.781 202.488C149.971 195.397 148.487 185.997 145.417 174.891C139.287 152.708 126.962 124.162 109.868 94.5535C102.609 81.9809 95.086 70.249 87.596 59.655L76.3923 60.2035C75.2387 62.4045 74.0202 64.6194 72.7386 66.8391C68.1775 74.7393 63.2706 81.9159 58.3287 88.0969L57.7448 125.274ZM88.5933 57.6038L89.7493 57.5472L88.5099 57.4865C88.5377 57.5256 88.5655 57.5647 88.5933 57.6038ZM85.9625 57.3618C86.0481 57.4811 86.1337 57.6005 86.2193 57.72L77.4523 58.1492C77.6515 57.757 77.8486 57.3653 78.0436 56.9742L85.9625 57.3618ZM84.4622 55.286C83.3181 53.714 82.1758 52.1697 81.0362 50.654C80.3891 52.0975 79.7113 53.5534 79.0034 55.0188L84.4622 55.286ZM80.5652 46.7268C83.9263 38.7745 86.2937 31.3021 87.5798 24.808C88.723 19.0355 88.9887 14.1491 88.4112 10.4306C87.8303 6.68921 86.4597 4.45925 84.6428 3.41024C82.8259 2.36124 80.2094 2.2893 76.6788 3.65686C73.1697 5.01605 69.0709 7.68933 64.6433 11.5656C62.1601 13.7396 59.6008 16.2679 57.0133 19.1102L57.0448 19.7543C64.4658 27.0057 72.4332 36.1258 80.5652 46.7268ZM57.1895 22.7113C57.4816 23.0039 57.7745 23.2995 58.0684 23.598C64.9282 30.566 72.2235 39.0766 79.6571 48.832C78.7759 50.8343 77.8336 52.8637 76.8313 54.9124L58.7225 54.026L57.1895 22.7113ZM53.3934 19.025C47.1266 13.1383 41.3632 8.73775 36.3499 6.02002C29.9959 2.57551 25.4476 2.14203 22.55 3.81499C19.6523 5.48795 17.7536 9.64362 17.5596 16.8686C17.3692 23.9604 18.854 33.3599 21.9233 44.4663C22.882 47.9353 23.9922 51.5599 25.2484 55.3199L30.4763 55.0639C32.0682 51.8828 33.7992 48.6636 35.6638 45.434C41.2273 35.7978 47.3052 27.2381 53.3335 20.2485L53.3934 19.025ZM23.8367 57.3914L20.6531 57.5472L23.9449 57.7084C23.9087 57.6026 23.8726 57.4969 23.8367 57.3914ZM26.0961 57.8137C26.0356 57.6387 25.9755 57.464 25.9156 57.2896L29.4661 57.1158C29.3299 57.3972 29.1948 57.6782 29.0608 57.9588L26.0961 57.8137ZM26.8098 59.851C27.0067 60.4058 27.2065 60.9633 27.4093 61.5233C27.6491 60.9892 27.8931 60.4535 28.1413 59.9162L26.8098 59.851ZM53.6196 59.1611L54.1051 90.0757C54.8494 89.2011 55.5947 88.302 56.3397 87.3793L56.7829 59.1611L75.1477 58.262C75.388 57.7963 75.6254 57.3314 75.8596 56.8673L56.8136 55.9349L55.2012 22.9991L53.5889 55.9349L31.7461 57.0042C31.5719 57.3583 31.3994 57.7119 31.2287 58.0649L53.6196 59.1611ZM71.0066 65.8391C66.9866 72.8019 62.7043 79.1812 58.3806 84.7916L58.7532 61.067L74.0703 60.3172C73.0945 62.1498 72.0729 63.9922 71.0066 65.8391ZM51.68 54.026L53.1725 23.537C47.7913 30.0313 42.391 37.7823 37.3959 46.434C35.7467 49.2906 34.2046 52.1363 32.773 54.9515L51.68 54.026Z" fill="white"/>
</svg>
