<svg width="199" height="111" viewBox="0 0 199 111" fill="none" xmlns="http://www.w3.org/2000/svg">
<path fill-rule="evenodd" clip-rule="evenodd" d="M55.4414 0.323242L60.7946 32.8228C74.2102 21.7321 97.259 14.4141 123.441 14.4141C164.863 14.4141 198.441 32.7297 198.441 55.3232C198.441 77.9167 164.863 96.2323 123.441 96.2323C97.259 96.2323 74.2102 88.9143 60.7946 77.8236L55.4414 110.323L47.6632 63.1014L0.441406 55.3232L47.6632 47.5451L55.4414 0.323242ZM61.5211 73.413L61.6148 72.8444C69.9111 77.4333 81.4423 80.2778 94.1914 80.2778C119.458 80.2778 139.941 69.1053 139.941 55.3233C139.941 41.5412 119.458 30.3687 94.1914 30.3687C81.4423 30.3687 69.9112 33.2132 61.6148 37.8021L61.5211 37.2336C63.2305 35.9752 65.1241 34.7762 67.1924 33.6481C77.8393 27.8407 92.6844 24.1869 109.191 24.1869C125.698 24.1869 140.544 27.8407 151.19 33.6481C161.913 39.4967 167.941 47.2479 167.941 55.3233C167.941 63.3986 161.913 71.1498 151.19 76.9984C140.544 82.8058 125.698 86.4596 109.191 86.4596C92.6844 86.4596 77.8393 82.8058 67.1924 76.9984C65.1241 75.8703 63.2305 74.6713 61.5211 73.413ZM62.799 71.213C62.515 71.0581 62.2356 70.9015 61.9608 70.7433L62.1866 69.373C67.1189 71.1789 73.0546 72.2324 79.4414 72.2324C96.5622 72.2324 110.441 64.6619 110.441 55.3232C110.441 45.9846 96.5622 38.4142 79.4414 38.4142C73.0546 38.4142 67.1189 39.4677 62.1866 41.2735L61.9608 39.9032C62.2356 39.745 62.515 39.5884 62.799 39.4335C70.7314 35.1067 81.8266 32.3687 94.1914 32.3687C106.556 32.3687 117.651 35.1067 125.584 39.4335C133.592 43.8016 137.941 49.5072 137.941 55.3233C137.941 61.1393 133.592 66.845 125.584 71.213C117.651 75.5398 106.556 78.2778 94.1914 78.2778C81.8266 78.2778 70.7314 75.5398 62.799 71.213ZM108.434 54.9926C108.274 51.5032 105.579 47.9454 100.404 45.1225C95.1408 42.2517 87.7331 40.4142 79.4414 40.4142C73.0935 40.4142 67.2638 41.4911 62.5177 43.2842L63.2196 47.5451L108.434 54.9926ZM108.434 55.6539C108.274 59.1433 105.579 62.7011 100.404 65.524C95.1408 68.3949 87.7331 70.2324 79.4414 70.2324C73.0935 70.2324 67.2638 69.1554 62.5177 67.3623L63.2196 63.1014L108.434 55.6539ZM61.7698 34.6102C64.5177 32.3012 67.7297 30.1354 71.3661 28.1519C84.5917 20.9379 102.999 16.4141 123.441 16.4141C143.883 16.4141 162.291 20.9379 175.517 28.1519C188.818 35.4072 196.441 45.1015 196.441 55.3232C196.441 65.545 188.818 75.2393 175.517 82.4945C162.291 89.7085 143.883 94.2323 123.441 94.2323C102.999 94.2323 84.5917 89.7085 71.3661 82.4945C67.7299 80.5111 64.518 78.3455 61.7702 76.0366C72.9037 83.6103 90.0093 88.4596 109.191 88.4596C142.743 88.4596 169.941 73.624 169.941 55.3233C169.941 37.0225 142.743 22.1869 109.191 22.1869C90.009 22.1869 72.9032 27.0363 61.7698 34.6102Z" fill="white"/>
</svg>
