<svg width="111" height="141" viewBox="0 0 111 141" fill="none" xmlns="http://www.w3.org/2000/svg">
<path fill-rule="evenodd" clip-rule="evenodd" d="M62.7533 34.7073C60.9758 30.3322 59.743 25.6761 59.1365 20.824L56.5474 0.112305H54.5628L51.9737 20.824C51.3672 25.6762 50.1344 30.3322 48.3569 34.7073C33.7181 37.657 22.2733 49.4274 19.8058 64.2351C15.5789 66.1203 11.0639 67.4919 6.33741 68.2704L0.392578 69.2496V71.223L6.3374 72.2022C11.0639 72.9808 15.5789 74.3524 19.8058 76.2376C22.2733 91.0452 33.7181 102.816 48.3569 105.765C50.1344 110.141 51.3672 114.797 51.9737 119.649L54.5628 140.36H56.5474L59.1365 119.649C59.743 114.797 60.9758 110.141 62.7533 105.765C77.3921 102.816 88.8369 91.0452 91.3044 76.2376C95.5313 74.3524 100.046 72.9808 104.773 72.2023L110.718 71.223L110.718 69.2496L104.773 68.2704C100.046 67.4919 95.5313 66.1203 91.3044 64.2351C88.8369 49.4274 77.3921 37.657 62.7533 34.7073ZM55.5551 8.29813L53.9583 21.0721C53.382 25.6816 52.2605 30.1202 50.6588 34.3205C52.2601 34.1042 53.8945 33.9926 55.5551 33.9926C57.2157 33.9926 58.8501 34.1042 60.4514 34.3205C58.8497 30.1202 57.7282 25.6815 57.1519 21.0721L55.5551 8.29813ZM61.3246 36.4765C59.449 36.1583 57.5214 35.9926 55.5551 35.9926C53.5888 35.9926 51.6612 36.1583 49.7856 36.4765C47.8462 40.9967 45.3412 45.2153 42.3565 49.0427C46.1855 46.653 50.7091 45.2722 55.5551 45.2722C60.4012 45.2722 64.9247 46.653 68.7538 49.0427C65.7691 45.2153 63.264 40.9967 61.3246 36.4765ZM47.3752 36.9756C34.6623 40.0915 24.7368 50.3059 22.0396 63.1779C33.2064 57.5812 42.1591 48.3196 47.3752 36.9756ZM19.4966 66.5486C15.4562 68.2471 11.1732 69.4972 6.70785 70.2363C11.1732 70.9755 15.4562 72.2256 19.4966 73.9241C19.3741 72.7115 19.3113 71.4812 19.3113 70.2363C19.3113 68.9914 19.3741 67.7612 19.4966 66.5486ZM21.622 74.8692C21.4171 73.3541 21.3113 71.8076 21.3113 70.2363C21.3113 68.6651 21.4171 67.1186 21.622 65.6035C26.074 63.5136 30.2047 60.8689 33.9282 57.7588C31.8057 61.4296 30.591 65.6911 30.591 70.2363C30.591 74.7816 31.8058 79.0431 33.9283 82.714C30.2048 79.6039 26.0741 76.9591 21.622 74.8692ZM22.0396 77.2948C24.7368 90.1668 34.6623 100.381 47.3752 103.497C42.1591 92.1531 33.2064 82.8915 22.0396 77.2948ZM50.6588 106.152C52.2605 110.352 53.3821 114.791 53.9583 119.401L55.5551 132.175L57.1519 119.401C57.7282 114.791 58.8497 110.352 60.4514 106.152C58.8501 106.368 57.2157 106.48 55.5551 106.48C53.8945 106.48 52.2601 106.368 50.6588 106.152ZM61.3246 103.996C59.449 104.314 57.5214 104.48 55.5551 104.48C53.5888 104.48 51.6612 104.314 49.7856 103.996C47.8462 99.4759 45.341 95.2572 42.3563 91.4298C46.1854 93.8195 50.709 95.2003 55.5551 95.2003C60.4012 95.2003 64.9248 93.8195 68.7539 91.4298C65.7691 95.2572 63.264 99.4759 61.3246 103.996ZM63.735 103.497C76.4479 100.381 86.3734 90.1668 89.0706 77.2948C77.9038 82.8915 68.9511 92.1531 63.735 103.497ZM91.6136 73.9241C95.654 72.2256 99.937 70.9755 104.402 70.2363C99.937 69.4972 95.654 68.2471 91.6136 66.5486C91.7361 67.7612 91.7989 68.9914 91.7989 70.2363C91.7989 71.4812 91.7361 72.7115 91.6136 73.9241ZM89.4882 65.6035C89.6931 67.1186 89.7989 68.6651 89.7989 70.2363C89.7989 71.8076 89.6931 73.3541 89.4882 74.8692C85.0361 76.9591 80.9054 79.6039 77.1819 82.714C79.3044 79.0431 80.5192 74.7816 80.5192 70.2363C80.5192 65.6911 79.3045 61.4296 77.182 57.7588C80.9055 60.8689 85.0362 63.5136 89.4882 65.6035ZM89.0706 63.1779C77.9038 57.5812 68.9511 48.3195 63.735 36.9756C76.4479 40.0915 86.3734 50.3059 89.0706 63.1779ZM55.5551 93.2003C68.2378 93.2003 78.5192 82.919 78.5192 70.2363C78.5192 57.5536 68.2378 47.2722 55.5551 47.2722C42.8724 47.2722 32.591 57.5536 32.591 70.2363C32.591 82.919 42.8724 93.2003 55.5551 93.2003Z" fill="white"/>
</svg>
