<svg width="120" height="195" viewBox="0 0 120 195" fill="none" xmlns="http://www.w3.org/2000/svg">
<path fill-rule="evenodd" clip-rule="evenodd" d="M29.4738 93.3043L5.07664 97.3229L28.3929 101.163C4.23836 147.25 -6.32711 186.783 4.73826 193.172C14.0225 198.532 35.9 179.038 59.1434 146.657L60.0766 152.323L61.5743 143.23C62.1438 142.418 62.7138 141.599 63.2843 140.772C73.0076 148.156 82.3626 150.881 88.8397 147.142C98.6653 141.469 98.9177 122.622 90.6795 101.341L115.077 97.3229L91.7603 93.4823C115.915 47.3959 126.48 7.86256 115.415 1.47396C106.131 -3.88629 84.2533 15.6076 61.0099 47.9886L60.0766 42.3229L58.579 51.4152C58.0095 52.2273 57.4395 53.0469 56.869 53.8737C47.1457 46.4899 37.7907 43.7642 31.3136 47.5037C21.4879 53.1766 21.2356 72.0239 29.4738 93.3043ZM35.3519 172.889C42.6536 165.106 50.5908 155.261 58.6827 143.86L57.3415 135.718C50.4043 129.185 43.5382 120.489 37.6417 110.276C36.0408 107.503 34.5726 104.724 33.2391 101.962L30.472 101.506C19.733 121.923 11.6787 141.037 6.99694 156.518C4.04311 166.286 2.46537 174.499 2.35399 180.634C2.29828 183.702 2.61223 186.146 3.23397 187.968C3.85015 189.774 4.72417 190.854 5.73826 191.44C6.75236 192.025 8.12472 192.242 9.99684 191.873C11.8859 191.5 14.159 190.55 16.7885 188.968C22.0461 185.804 28.37 180.331 35.3519 172.889ZM35.6615 102.361C36.8037 104.659 38.0414 106.968 39.3737 109.276C44.6422 118.401 50.6751 126.26 56.7945 132.397L52.2985 105.101L35.6615 102.361ZM62.8419 137.881C62.7284 137.789 62.6148 137.697 62.5012 137.603L67.8548 105.101L84.7163 102.324C83.4356 104.63 82.1231 106.949 80.7796 109.276C74.8899 119.477 68.8462 129.08 62.8419 137.881ZM64.4173 139.121C64.8526 139.453 65.2869 139.774 65.7199 140.086C74.873 146.677 82.7499 148.348 87.8397 145.41C92.9295 142.471 95.4205 134.814 94.2892 123.592C93.6273 117.026 91.7389 109.531 88.6627 101.674L87.2308 101.91C85.7032 104.683 84.1296 107.473 82.5116 110.276C76.5756 120.557 70.479 130.242 64.4173 139.121ZM86.9143 92.6841L89.6812 93.1398C100.42 72.7231 108.475 53.6089 113.156 38.1276C116.11 28.3602 117.688 20.1471 117.799 14.0118C117.855 10.9434 117.541 8.49984 116.919 6.67753C116.303 4.87154 115.429 3.7915 114.415 3.20601C113.401 2.62052 112.029 2.40362 110.156 2.77299C108.267 3.1457 105.994 4.09559 103.365 5.67802C98.1072 8.84214 91.7833 14.315 84.8014 21.7568C77.4997 29.5394 69.5625 39.3843 61.4706 50.7857L62.8118 58.928C69.7489 65.4605 76.6151 74.1568 82.5116 84.37C84.1125 87.1427 85.5807 89.9214 86.9143 92.6841ZM63.3588 62.2488C69.4782 68.3858 75.5111 76.2447 80.7796 85.37C82.1119 87.6776 83.3496 89.987 84.4918 92.2851L67.8548 89.5447L63.3588 62.2488ZM57.3114 56.7642C57.4249 56.8563 57.5385 56.9491 57.6521 57.0425L52.2985 89.5447L35.437 92.322C36.7176 90.0154 38.0302 87.697 39.3737 85.37C45.2633 75.1688 51.3071 65.5657 57.3114 56.7642ZM55.736 55.5246C49.6743 64.4039 43.5776 74.0885 37.6416 84.37C36.0237 87.1724 34.45 89.963 32.9225 92.7362L31.4907 92.9721C28.4144 85.115 26.526 77.6199 25.8641 71.0539C24.7328 59.8317 27.2238 52.1744 32.3136 49.2358C37.4034 46.2972 45.2803 47.9686 54.4333 54.5594C54.8664 54.8712 55.3007 55.193 55.736 55.5246Z" fill="white"/>
</svg>
