<svg width="111" height="141" viewBox="0 0 111 141" fill="none" xmlns="http://www.w3.org/2000/svg">
<path fill-rule="evenodd" clip-rule="evenodd" d="M6.53467 68.2704C10.3568 67.6409 14.0407 66.6234 17.5458 65.2602C14.0013 58.9385 11.9804 51.6474 11.9804 43.8843C11.9804 20.0418 31.043 0.651617 54.7587 0.123361L54.7601 0.112305H56.7446L56.746 0.12336C80.4617 0.651588 99.5244 20.0418 99.5244 43.8843C99.5244 51.6474 97.5034 58.9385 93.959 65.2602C97.4641 66.6234 101.148 67.6409 104.97 68.2704L110.915 69.2496L110.915 71.223L104.97 72.2023C101.148 72.8318 97.4641 73.8493 93.959 75.2125C97.5034 81.5342 99.5244 88.8253 99.5244 96.5884C99.5244 120.431 80.4617 139.821 56.746 140.349L56.7446 140.36H54.7601L54.7587 140.349C31.043 139.821 11.9804 120.431 11.9804 96.5884C11.9804 88.8253 14.0013 81.5342 17.5458 75.2125C14.0407 73.8493 10.3568 72.8318 6.53467 72.2022L0.589844 71.223V69.2496L6.53467 68.2704ZM54.1555 21.0721L55.7524 8.29813L57.3492 21.0721C59.883 41.3415 72.9608 58.3079 91.0549 66.2244C90.5372 67.0407 89.992 67.8379 89.4206 68.6145C81.3914 58.9616 69.2895 52.8164 55.7524 52.8164C42.2152 52.8164 30.1134 58.9616 22.0842 68.6145C21.5128 67.8378 20.9676 67.0407 20.4499 66.2244C38.5439 58.3079 51.6217 41.3415 54.1555 21.0721ZM45.6435 56.0479C36.7357 58.2618 28.9577 63.3348 23.3398 70.2363C28.9577 77.1379 36.7357 82.2109 45.6435 84.4248C41.2178 81.266 38.3325 76.0881 38.3325 70.2363C38.3325 64.3846 41.2178 59.2067 45.6435 56.0479ZM55.7524 85.6563C47.2362 85.6563 40.3325 78.7525 40.3325 70.2363C40.3325 61.7201 47.2362 54.8164 55.7524 54.8164C64.2686 54.8164 71.1723 61.7201 71.1723 70.2363C71.1723 78.7525 64.2686 85.6563 55.7524 85.6563ZM55.7524 87.6563C42.2152 87.6563 30.1134 81.5111 22.0842 71.8582C21.5128 72.6348 20.9676 73.432 20.4499 74.2483C38.5439 82.1648 51.6217 99.1312 54.1555 119.401L55.7524 132.175L57.3492 119.401C59.883 99.1312 72.9608 82.1647 91.0549 74.2483C90.5372 73.432 89.992 72.6348 89.4206 71.8582C81.3914 81.5111 69.2895 87.6563 55.7524 87.6563ZM65.8613 56.0479C74.7691 58.2618 82.5471 63.3348 88.165 70.2364C82.5471 77.1379 74.769 82.2109 65.8613 84.4248C70.2869 81.266 73.1723 76.0881 73.1723 70.2363C73.1723 64.3846 70.2869 59.2067 65.8613 56.0479ZM90.7063 70.2363C91.4932 69.1942 92.2345 68.1158 92.9274 67.0041C96.6376 68.4718 100.543 69.5649 104.6 70.2363C100.543 70.9078 96.6376 72.0009 92.9274 73.4686C92.2345 72.3568 91.4932 71.2785 90.7063 70.2363ZM18.5774 67.0041C19.2703 68.1158 20.0116 69.1942 20.7985 70.2363C20.0116 71.2785 19.2703 72.3569 18.5774 73.4686C14.8672 72.0009 10.9614 70.9078 6.90511 70.2363C10.9614 69.5649 14.8672 68.4718 18.5774 67.0041ZM13.9804 43.8843C13.9804 51.3794 15.9544 58.4135 19.4109 64.495C36.9929 56.9012 49.715 40.4706 52.171 20.824L54.5078 2.13049C32.0135 2.78871 13.9804 21.2306 13.9804 43.8843ZM59.3338 20.824L56.9969 2.13049C79.4913 2.78868 97.5244 21.2306 97.5244 43.8843C97.5244 51.3795 95.5504 58.4135 92.0939 64.495C74.5119 56.9013 61.7897 40.4706 59.3338 20.824ZM54.5078 138.342C32.0135 137.684 13.9804 119.242 13.9804 96.5884C13.9804 89.0932 15.9544 82.0592 19.4109 75.9777C36.9929 83.5714 49.715 100.002 52.171 119.649L54.5078 138.342ZM56.9969 138.342C79.4913 137.684 97.5244 119.242 97.5244 96.5884C97.5244 89.0932 95.5504 82.0591 92.0939 75.9776C74.5119 83.5714 61.7897 100.002 59.3338 119.649L56.9969 138.342Z" fill="white"/>
</svg>
