<svg width="135" height="135" viewBox="0 0 135 135" fill="none" xmlns="http://www.w3.org/2000/svg">
<path d="M81.6025 14.404L76.8937 62.0299L120.493 81.765L72.8674 77.0562L53.1324 120.656L57.8412 73.0299L14.2415 53.2949L61.8674 58.0036L81.6025 14.404Z" fill="white"/>
<path fill-rule="evenodd" clip-rule="evenodd" d="M67.3672 25.5298C44.1712 25.5298 25.3672 44.3338 25.3672 67.5298C25.3672 90.7257 44.1712 109.53 67.3672 109.53C90.5631 109.53 109.367 90.7257 109.367 67.5298C109.367 44.3338 90.5631 25.5298 67.3672 25.5298ZM23.3672 67.5298C23.3672 43.2293 43.0667 23.5298 67.3672 23.5298C91.6677 23.5298 111.367 43.2293 111.367 67.5298C111.367 91.8303 91.6677 111.53 67.3672 111.53C43.0667 111.53 23.3672 91.8303 23.3672 67.5298Z" fill="white"/>
</svg>
