<svg width="126" height="209" viewBox="0 0 126 209" fill="none" xmlns="http://www.w3.org/2000/svg">
<path d="M63.0391 49.3228L70.8172 96.5446L118.039 104.323L70.8172 112.101L63.0391 159.323L55.2609 112.101L8.03906 104.323L55.2609 96.5446L63.0391 49.3228Z" fill="white"/>
<path fill-rule="evenodd" clip-rule="evenodd" d="M20.1134 32.1136C9.01688 50.5452 2.12109 76.0727 2.12109 104.323C2.12109 132.573 9.01688 158.101 20.1134 176.532C31.2216 194.983 46.429 206.172 63.0398 206.172C79.6506 206.172 94.8581 194.983 105.966 176.532C117.063 158.101 123.959 132.573 123.959 104.323C123.959 76.0727 117.063 50.5452 105.966 32.1136C94.8581 13.6626 79.6506 2.47412 63.0398 2.47412C46.429 2.47412 31.2216 13.6626 20.1134 32.1136ZM18.4 31.0821C29.7019 12.3091 45.4539 0.474121 63.0398 0.474121C80.6258 0.474121 96.3777 12.3091 107.68 31.0821C118.993 49.8744 125.959 75.7713 125.959 104.323C125.959 132.874 118.993 158.771 107.68 177.564C96.3777 196.337 80.6258 208.172 63.0398 208.172C45.4539 208.172 29.7019 196.337 18.4 177.564C7.08629 158.771 0.121094 132.874 0.121094 104.323C0.121094 75.7713 7.08629 49.8744 18.4 31.0821Z" fill="white"/>
</svg>
