<svg width="168" height="168" viewBox="0 0 168 168" fill="none" xmlns="http://www.w3.org/2000/svg">
<path d="M84.332 28.5298L92.1102 75.7516L139.332 83.5298L92.1102 91.308L84.332 138.53L76.5539 91.308L29.332 83.5298L76.5539 75.7516L84.332 28.5298Z" fill="white"/>
<path fill-rule="evenodd" clip-rule="evenodd" d="M84.332 165.03C129.343 165.03 165.832 128.541 165.832 83.5298C165.832 38.5186 129.343 2.02979 84.332 2.02979C39.3208 2.02979 2.83203 38.5186 2.83203 83.5298C2.83203 128.541 39.3208 165.03 84.332 165.03ZM84.332 167.03C130.448 167.03 167.832 129.646 167.832 83.5298C167.832 37.414 130.448 0.0297852 84.332 0.0297852C38.2163 0.0297852 0.832031 37.414 0.832031 83.5298C0.832031 129.646 38.2163 167.03 84.332 167.03Z" fill="white"/>
</svg>
