<svg width="175" height="176" viewBox="0 0 175 176" fill="none" xmlns="http://www.w3.org/2000/svg">
<path fill-rule="evenodd" clip-rule="evenodd" d="M84.0532 38.8239C83.0259 47.0423 80.2021 54.6979 75.9777 61.3794C68.3055 59.9198 60.8705 56.8115 54.2226 52.044L49.3266 48.5327L47.9312 49.9282L51.4424 54.8242C56.3293 61.6385 59.4728 69.2798 60.8843 77.1558C54.317 81.727 46.691 84.9074 38.4169 86.2703L32.4721 87.2495V89.2229L38.4169 90.2021C46.4889 91.5317 53.9441 94.5912 60.4013 98.9842C58.6639 106.696 55.2472 114.106 50.1624 120.644L37.3478 137.12L38.7511 138.523L55.2273 125.708C61.5984 120.753 68.798 117.382 76.2978 115.606C80.3448 122.165 83.0521 129.64 84.0533 137.649L86.6424 158.36H88.6269L91.216 137.649C92.2434 129.43 95.0671 121.775 99.2916 115.093C106.964 116.553 114.399 119.661 121.047 124.429L125.943 127.94L127.338 126.544L123.827 121.648C118.94 114.834 115.797 107.193 114.385 99.3166C120.952 94.7455 128.578 91.565 136.852 90.2021L142.797 89.2229L142.797 87.2495L136.852 86.2703C128.78 84.9407 121.325 81.8812 114.868 77.4883C116.605 69.7766 120.022 62.3666 125.107 55.8288L137.921 39.3527L136.518 37.9494L120.042 50.764C113.671 55.7193 106.471 59.0903 98.9715 60.8668C94.9244 54.3074 92.2172 46.8329 91.216 38.8239L88.6269 18.1122H86.6424L84.0532 38.8239ZM87.6346 26.298L86.0378 39.072C85.0091 47.301 82.2425 54.9857 78.1079 61.7414C84.348 62.6763 90.7102 62.5323 96.9029 61.3149C92.9114 54.663 90.2386 47.1284 89.2315 39.0719L87.6346 26.298ZM53.0944 53.696C57.9479 60.4751 61.1379 68.0423 62.6749 75.8553C67.3605 72.3059 71.4525 68.025 74.7873 63.1827C67.1397 61.6118 59.7385 58.4528 53.0944 53.696ZM76.9332 63.5808C73.2011 69.185 68.5017 74.0901 63.0636 78.0585C64.1028 84.71 63.9574 91.5014 62.6336 98.1032C68.4021 102.231 73.3577 107.405 77.2334 113.347C84.1758 111.886 91.3383 111.731 98.3361 112.892C102.068 107.287 106.768 102.382 112.206 98.4139C111.166 91.7624 111.312 84.9711 112.636 78.3693C106.867 74.2415 101.912 69.0677 98.0359 63.1254C91.0935 64.5867 83.931 64.741 76.9332 63.5808ZM38.7874 88.2362C47.0128 86.8746 54.6193 83.7794 61.2308 79.3416C62.0342 85.1647 61.9007 91.0853 60.8347 96.8673C54.3162 92.5704 46.8491 89.5707 38.7874 88.2362ZM51.7411 121.872C56.8326 115.325 60.3102 107.935 62.1636 100.235C67.2371 103.986 71.6339 108.586 75.152 113.826C67.626 115.707 60.4083 119.145 53.9994 124.13L43.8377 132.033L51.7411 121.872ZM86.0378 137.401C85.0307 129.344 82.3579 121.81 78.3664 115.158C84.5591 113.94 90.9212 113.796 97.1613 114.731C93.0267 121.487 90.2602 129.171 89.2315 137.4L87.6346 150.174L86.0378 137.401ZM122.175 122.776C115.531 118.02 108.13 114.861 100.482 113.29C103.817 108.447 107.909 104.167 112.594 100.617C114.131 108.43 117.321 115.997 122.175 122.776ZM136.482 88.2362C128.256 89.5978 120.65 92.693 114.039 97.1308C113.235 91.3077 113.369 85.3872 114.435 79.6051C120.953 83.902 128.42 86.9017 136.482 88.2362ZM123.528 54.601C118.437 61.1472 114.959 68.5374 113.106 76.238C108.032 72.4866 103.635 67.8861 100.117 62.6464C107.643 60.7651 114.861 57.3273 121.27 52.3427L131.432 44.4393L123.528 54.601Z" fill="white"/>
<path fill-rule="evenodd" clip-rule="evenodd" d="M174.99 88.2362C174.99 136.481 135.88 175.592 87.6346 175.592C39.3896 175.592 0.279297 136.481 0.279297 88.2362C0.279297 39.9912 39.3896 0.880859 87.6346 0.880859C135.88 0.880859 174.99 39.9912 174.99 88.2362ZM172.99 88.2362C172.99 135.377 134.775 173.592 87.6346 173.592C40.4942 173.592 2.2793 135.377 2.2793 88.2362C2.2793 41.0957 40.4942 2.88086 87.6346 2.88086C134.775 2.88086 172.99 41.0957 172.99 88.2362Z" fill="white"/>
</svg>
